<svg xmlns="http://www.w3.org/2000/svg" width="607.692" height="273.611" viewBox="0 0 607.692 273.611"><g transform="translate(-1280.924 -518)"><g transform="translate(1286.308 612.171)"><path d="M412.308,555.385s154.615-79.231,298.462,0,298.462,0,298.462,0" transform="translate(-412.308 -520.171)" fill="none" stroke="#d26864" stroke-linecap="round" stroke-width="8"/><path d="M412.308,555.385s154.615-79.231,298.462,0,298.462,0,298.462,0" transform="translate(-412.308 -485.171)" fill="none" stroke="#d97e62" stroke-linecap="round" stroke-width="8"/><path d="M412.308,555.385s154.615-79.231,298.462,0,298.462,0,298.462,0" transform="translate(-412.308 -450.171)" fill="none" stroke="#e29b5e" stroke-linecap="round" stroke-width="8"/><path d="M412.308,555.385s154.615-79.231,298.462,0,298.462,0,298.462,0" transform="translate(-412.308 -415.171)" fill="none" stroke="#eec75e" stroke-linecap="round" stroke-width="8"/></g><g transform="translate(1357 524)"><text transform="translate(0 46)" fill="#707070" font-size="50" font-family="Roboto-Light, Roboto" font-weight="300"><tspan x="0" y="0">F</tspan></text><text transform="translate(106 46)" fill="#707070" font-size="50" font-family="Roboto-Light, Roboto" font-weight="300"><tspan x="0" y="0">L</tspan></text><text transform="translate(213 46)" fill="#707070" font-size="50" font-family="Roboto-Light, Roboto" font-weight="300"><tspan x="0" y="0">E</tspan></text><text transform="translate(319 46)" fill="#707070" font-size="50" font-family="Roboto-Light, Roboto" font-weight="300"><tspan x="0" y="0">E</tspan></text><text transform="translate(425 46)" fill="#707070" font-size="50" font-family="Roboto-Light, Roboto" font-weight="300"><tspan x="0" y="0">T</tspan></text></g></g></svg>