<svg xmlns="http://www.w3.org/2000/svg" width="356.26" height="160.135" viewBox="0 0 356.26 160.135">
  <g id="fleetpc" transform="translate(5.384)">
    <g id="Group_22" data-name="Group 22" transform="translate(0 54.505)">
      <path id="Path_61" data-name="Path 61" d="M412.308,540.552s89.489-45.858,172.746,0,172.746,0,172.746,0" transform="translate(-412.308 -520.171)" fill="none" stroke="#d26864" stroke-linecap="round" stroke-width="8"/>
      <path id="Path_62" data-name="Path 62" d="M412.308,540.552s89.489-45.858,172.746,0,172.746,0,172.746,0" transform="translate(-412.308 -499.914)" fill="none" stroke="#d97e62" stroke-linecap="round" stroke-width="8"/>
      <path id="Path_63" data-name="Path 63" d="M412.308,540.552s89.489-45.858,172.746,0,172.746,0,172.746,0" transform="translate(-412.308 -479.656)" fill="none" stroke="#e29b5e" stroke-linecap="round" stroke-width="8"/>
      <path id="Path_64" data-name="Path 64" d="M412.308,540.552s89.489-45.858,172.746,0,172.746,0,172.746,0" transform="translate(-412.308 -459.399)" fill="none" stroke="#eec75e" stroke-linecap="round" stroke-width="8"/>
    </g>
    <g id="Group_23" data-name="Group 23" transform="translate(40.916 0)">
      <text id="F" transform="translate(0 26)" fill="#fff" font-size="25" font-family="Roboto-Light, Roboto" font-weight="300"><tspan x="0" y="0">F</tspan></text>
      <text id="L" transform="translate(61.351 26)" fill="#fff" font-size="25" font-family="Roboto-Light, Roboto" font-weight="300"><tspan x="0" y="0">L</tspan></text>
      <text id="E" transform="translate(123.282 26)" fill="#fff" font-size="25" font-family="Roboto-Light, Roboto" font-weight="300"><tspan x="0" y="0">E</tspan></text>
      <text id="E-2" data-name="E" transform="translate(184.633 26)" fill="#fff" font-size="25" font-family="Roboto-Light, Roboto" font-weight="300"><tspan x="0" y="0">E</tspan></text>
      <text id="T" transform="translate(245.984 28)" fill="#fff" font-size="27" font-family="Roboto-Light, Roboto" font-weight="300"><tspan x="0" y="0">T</tspan></text>
    </g>
  </g>
</svg>
