<svg id="L" xmlns="http://www.w3.org/2000/svg" xmlns:xlink="http://www.w3.org/1999/xlink" viewBox="0 0 1300.22 442.86">
  <defs>
    <style>
      .cls-1 {
        font-size: 123.58px;
        font-family: Cinzel-Regular, Cinzel;
        letter-spacing: 0.1em;
      }

      .cls-1, .cls-9 {
        fill: #c1902f;
      }

      .cls-2 {
        letter-spacing: 0.09em;
      }

      .cls-3 {
        letter-spacing: 0.07em;
      }

      .cls-4 {
        letter-spacing: 0.09em;
      }

      .cls-5 {
        letter-spacing: 0.07em;
      }

      .cls-6 {
        letter-spacing: 0.1em;
      }

      .cls-7 {
        fill: url(#linear-gradient);
      }

      .cls-8 {
        fill: url(#linear-gradient-2);
      }

      .cls-10 {
        fill: url(#linear-gradient-3);
      }

      .cls-11 {
        fill: url(#linear-gradient-4);
      }

      .cls-12 {
        fill: url(#linear-gradient-5);
      }

      .cls-13 {
        fill: url(#linear-gradient-6);
      }

      .cls-14 {
        fill: url(#linear-gradient-7);
      }

      .cls-15 {
        fill: url(#linear-gradient-8);
      }

      .cls-16 {
        fill: url(#linear-gradient-9);
      }

      .cls-17 {
        fill: url(#linear-gradient-10);
      }

      .cls-18 {
        fill: #f4dfc3;
      }
    </style>
    <linearGradient id="linear-gradient" x1="217.28" y1="31.24" x2="217.34" y2="35.22" gradientUnits="userSpaceOnUse">
      <stop offset="0" stop-color="#c1902f"/>
      <stop offset="1" stop-color="#d4ab66"/>
    </linearGradient>
    <linearGradient id="linear-gradient-2" x1="264.67" y1="113.74" x2="265.37" y2="160.34" xlink:href="#linear-gradient"/>
    <linearGradient id="linear-gradient-3" x1="217.03" y1="114.47" x2="217.74" y2="161.07" xlink:href="#linear-gradient"/>
    <linearGradient id="linear-gradient-4" x1="78.27" y1="395.58" x2="474.35" y2="-136.76" gradientUnits="userSpaceOnUse">
      <stop offset="0" stop-color="#fff"/>
      <stop offset="1" stop-color="#c2c0c0"/>
    </linearGradient>
    <linearGradient id="linear-gradient-5" x1="81.48" y1="400.49" x2="480.71" y2="-136.08" xlink:href="#linear-gradient-4"/>
    <linearGradient id="linear-gradient-6" x1="214.85" y1="114.51" x2="215.55" y2="161.1" xlink:href="#linear-gradient"/>
    <linearGradient id="linear-gradient-7" x1="47.73" y1="374.59" x2="445.48" y2="-160.01" xlink:href="#linear-gradient-4"/>
    <linearGradient id="linear-gradient-8" x1="53.22" y1="377.46" x2="449.5" y2="-155.15" xlink:href="#linear-gradient-4"/>
    <linearGradient id="linear-gradient-9" x1="106.63" y1="417.14" x2="503.79" y2="-116.66" xlink:href="#linear-gradient-4"/>
    <linearGradient id="linear-gradient-10" x1="99.2" y1="413.31" x2="498.98" y2="-124.02" xlink:href="#linear-gradient-4"/>
  </defs>
  <text class="cls-1" transform="translate(408 303.7)">IT<tspan class="cls-2" x="142.86" y="0">E</tspan><tspan class="cls-3" x="225.29" y="0">R</tspan><tspan x="317.6" y="0">AS</tspan><tspan class="cls-4" x="489.01" y="0">U</tspan><tspan class="cls-5" x="596.77" y="0">R</tspan><tspan class="cls-6" x="689.08" y="0">E</tspan></text>
  <path class="cls-7" d="M140.65,34.06,217,31.25c.25,0,.49,0,.73,0L294,34.06Z"/>
  <g>
    <g>
      <g>
        <path class="cls-8" d="M374.4,237.28a4.56,4.56,0,0,1,2.85-1.25c3.71-.24,6.94,4.12,6.42,7.59-.26,1.72-.56,3.44-.88,5.15-.43,2.27-1,4.52-1.35,6.8a1.85,1.85,0,0,0,0,.23c-.48,3.2-10.09,53.26-10.09,53.26H152.9c-3.38,0-3.71-9.28,2.06-11.06l.06,0a7.18,7.18,0,0,1,2-.27c8.1,0,18.55.13,26.46-4.39a21.26,21.26,0,0,0,9.63-11.66,38.17,38.17,0,0,0,2-13V236.18c16.24,0,30.63-7.48,41.7-17v49.48c0,24.91,6.18,25.66,38.47,25.09l7.53-.09a115.09,115.09,0,0,0,17.59-1.35A77.88,77.88,0,0,0,320.23,286a123.4,123.4,0,0,0,24.09-15.31c4.94-3.89,9.67-8,14.26-12.33a49.48,49.48,0,0,0,7.29-7.74c1.91-2.77,3.52-5.75,5.25-8.63a20.32,20.32,0,0,1,3.25-4.73Z"/>
        <path class="cls-9" d="M374.37,237.3a20.32,20.32,0,0,0-3.25,4.73c-1.73,2.88-3.34,5.86-5.25,8.63a49.48,49.48,0,0,1-7.29,7.74c-4.59,4.3-9.32,8.44-14.26,12.33A123.4,123.4,0,0,1,320.23,286a77.88,77.88,0,0,1-19.87,6.26,115.09,115.09,0,0,1-17.59,1.35l-7.53.09c-32.29.57-38.47-.18-38.47-25.09V254.59h0c.06,1.8,1.39,23.19,29.51,24.67,16.12.85,47-2.77,66.35-14.91C352.82,251.71,371.47,239.24,374.37,237.3Z"/>
        <path class="cls-10" d="M293.25,34.06s5.63,9.88,0,10.12S236.77,45,236.77,69v72.54c-3.92.06-7.82.31-11.67.57a171.3,171.3,0,0,0-30,4.56V69c0-24-50.83-24.59-56.47-24.82s0-10.12,0-10.12,55.11,5.58,77.33,5.58h1.4C240.36,39.42,293.25,34.06,293.25,34.06Z"/>
        <path class="cls-11" d="M259,144.2c8.32,2.66,14.58,8.51,14.07,17.68-.33,6.08-2.95,12-5.86,17.23,0,0-10.88,23.24-30.4,40.06V200.88c14.74-17.57,17.07-41.89,0-50.49v-8.85C244.28,141.41,251.83,141.93,259,144.2Z"/>
        <path class="cls-12" d="M236.77,200.88v18.29c-11.07,9.53-25.46,17-41.7,17V220.43A54.65,54.65,0,0,0,236.77,200.88Z"/>
        <path class="cls-13" d="M236.77,150.39v50.49a54.65,54.65,0,0,1-41.7,19.55V152.34l1.18-.44C215.09,145.71,228.31,146.11,236.77,150.39Z"/>
        <path class="cls-14" d="M236.77,141.54v8.85c-8.46-4.28-21.68-4.68-40.52,1.51l-1.18.44v-5.67a171.3,171.3,0,0,1,30-4.56C229,141.85,232.85,141.6,236.77,141.54Z"/>
        <path class="cls-9" d="M195.07,254.47v14.18a38.17,38.17,0,0,1-2,13c-.74-.91-1.49-1.81-2.26-2.71C191.49,277,195.07,265.8,195.07,254.47Z"/>
        <path class="cls-15" d="M190.83,279c.77.9,1.52,1.8,2.26,2.71a21.26,21.26,0,0,1-9.63,11.66q-2.07-1.76-4.32-3.51c-9.66-7.52-22-15-37.23-22.15-15.92-9.21-33.52-23.39-33.85-43.35-.26-15.36,9.55-29,19.95-39.5a144.37,144.37,0,0,1,62.54-36.94c1.5-.43,3-.83,4.52-1.2v5.67c-84.5,31.44-86.64,69.27-21.84,110.15A111.87,111.87,0,0,1,190.83,279Z"/>
        <path class="cls-9" d="M179.14,289.81q2.25,1.76,4.32,3.51c-7.91,4.52-18.36,4.39-26.46,4.39a7.18,7.18,0,0,0-2,.27Z"/>
      </g>
      <path class="cls-16" d="M209.28,309.06c21.82,54.52-10,117.79-149.69,86.13l10.66-18.12c72.78,42.74,170.29-9.88,128.08-68Z"/>
      <path class="cls-17" d="M236.77,231.51s1.34,17.61-33.33,18.78v15.53c34.67-1.17,33.33-18.53,33.33-18.53Z"/>
    </g>
    <path class="cls-18" d="M220,255.88l4.87,1.25c-3.82,1.94-21.35,2.81-21.35,2.81v-5.47s17-.79,20.81-2.73Z"/>
  </g>
</svg>
