<?xml version="1.0" encoding="UTF-8"?>
<svg width="300px" height="300px" viewBox="0 0 300 300" version="1.1" xmlns="http://www.w3.org/2000/svg" xmlns:xlink="http://www.w3.org/1999/xlink">
    <title>Logo - Black</title>
    <defs>
        <radialGradient cx="50%" cy="-6.55265629%" fx="50%" fy="-6.55265629%" r="144.452928%" id="radialGradient-1">
            <stop stop-color="#484848" offset="0%"></stop>
            <stop stop-color="#2A2A2A" offset="100%"></stop>
        </radialGradient>
    </defs>
    <g id="Logo---Black" stroke="none" stroke-width="1" fill="none" fill-rule="evenodd">
        <path d="M206.397243,71.0799673 L225.290458,73.9713955 C244.870949,93.3629642 257,120.265036 257,150 C257,209.094468 209.094468,257 150,257 C130.025738,257 111.329787,251.526898 95.3300099,241.998558 C127.832208,242.156254 159.680282,205.515596 190.876016,132.077527 C209.43944,123.812151 226.670942,129.589258 217.829543,124.296724 C212.094234,120.863521 203.43311,121.02557 191.84478,124.785349 C193.343945,120.552152 196.471501,109.299693 201.22745,91.0279697 L201.22745,91.0279697 L204.367945,80.4711333 C205.221752,76.8678052 205.898184,73.7374165 206.397243,71.0799673 L206.397243,71.0799673 Z M174.327747,136.375866 C145.856338,201.908227 119.294384,233.983609 94.641884,232.602011 C57.6631341,230.529615 106.376039,160.318009 153.262707,143.524159 C162.135573,140.346079 169.619926,137.931329 174.327747,136.375866 Z M150,43 C171.710477,43 191.910757,49.4659264 208.780173,60.5771142 C208.141086,60.3935606 207.489905,60.2091989 206.825575,60.0253021 C206.681508,59.9121678 206.512525,59.8654663 206.318626,59.8851977 L206.318626,59.8851977 L206.182761,59.8487748 C180.125486,52.7378294 127.142516,58.4751357 115.870614,82.3195023 C108.356013,98.2157467 113.891117,110.853148 132.475924,120.231707 C143.512148,125.609036 145.447952,124.860556 138.283335,117.986268 C131.118719,111.11198 126.676676,106.055852 124.957207,102.817885 C121.113832,95.1883723 125.555875,87.6946286 138.283335,80.3366538 C151.010796,72.9786789 171.142452,69.5000382 198.678303,69.9007316 C189.363662,86.1564329 181.918894,106.052608 176.343998,129.589258 C120.256723,142.835834 71.441468,191.184665 69.0887265,220.025195 C52.836357,201.257733 43,176.777568 43,150 C43,90.9055318 90.9055318,43 150,43 Z" id="Logo-Dark" fill="url(#radialGradient-1)"></path>
    </g>
</svg>