<svg id="circuts" xmlns="http://www.w3.org/2000/svg" viewBox="0 0 1971 1143.13">
  <defs>
    <style>
      .cls-1, .cls-2, .cls-3 {
        fill: none;
      }

      .cls-1, .cls-2, .cls-3, .cls-4 {
        stroke: #fff;
        stroke-miterlimit: 10;
      }

      .cls-2 {
        stroke-width: 0.5px;
      }

      .cls-3 {
        stroke-width: 3px;
      }
    </style>
  </defs>
  <polyline class="cls-1" points="884 442.13 884 398.13 848 362.13 709 362.13 627.5 280.63 627.5 258.13 397.75 28.39"/>
  <line class="cls-1" x1="609" y1="253.13" x2="384.5" y2="28.63"/>
  <polyline class="cls-1" points="892 442.13 892 390.13 856 354.13 716 354.13 636.5 274.63 636.5 251.13 414.25 28.89"/>
  <polyline class="cls-1" points="899 441.13 899 383.13 863 347.13 863 331.13 826.5 294.63 826.5 183.13 839.75 169.88 839.75 155.13 805.38 120.76 722 120.76 684.19 82.95 670 82.95 657.59 70.54 657.59 37.13 648.3 27.84"/>
  <polyline class="cls-1" points="906 440.13 906 373.13 872 339.13 872 322.13 835.5 285.63 835.5 191.13 848.75 177.88 848.75 146.13 813.38 110.76 729 110.76 693.69 75.45 680 75.45 667.84 63.29"/>
  <polyline class="cls-1" points="914 442.13 914 367.13 878.5 331.63 878.5 316.13 841.75 279.38 841.75 197.13 855.88 183.01 855.88 138.13 813.44 95.7 773 95.7 766.78 101.92 733 101.92 659.61 28.52"/>
  <polyline class="cls-1" points="922 443.13 922 361.13 885 324.13 885 213.13 893 205.13 893 110.14 863 80.14 863 27.64"/>
  <line class="cls-1" x1="870" y1="77.13" x2="870" y2="28.13"/>
  <line class="cls-1" x1="878" y1="88.13" x2="878" y2="23.13"/>
  <line class="cls-1" x1="885" y1="94.13" x2="885" y2="21.13"/>
  <rect class="cls-1" x="669" y="264.37" width="26" height="18.27"/>
  <rect class="cls-1" x="669" y="245.18" width="26" height="18.27"/>
  <rect class="cls-1" x="669" y="226" width="26" height="18.27"/>
  <rect class="cls-1" x="669" y="206.82" width="26" height="18.27"/>
  <rect class="cls-1" x="669" y="187.63" width="26" height="18.27"/>
  <rect class="cls-1" x="894.5" y="482.63" width="177" height="175" rx="6.5"/>
  <rect class="cls-1" x="942" y="531.13" width="80" height="78"/>
  <polyline class="cls-1" points="794 188.13 695 188.13 695 209.22 704 209.22 704 226.13 724.62 226.13 794 226.13 794 209.13 704 209.13"/>
  <line class="cls-1" x1="724" y1="209.13" x2="724" y2="226.13"/>
  <line class="cls-1" x1="764.32" y1="226" x2="764.32" y2="209.13"/>
  <polyline class="cls-1" points="703.97 188.13 703.97 202.13 716 202.13 716 188.13"/>
  <polyline class="cls-1" points="722.97 188.13 722.97 202.13 735 202.13 735 188.13"/>
  <polyline class="cls-1" points="743.97 188.13 743.97 202.13 756 202.13 756 188.13"/>
  <polyline class="cls-1" points="761.97 188.13 761.97 202.13 774 202.13 774 188.13"/>
  <polyline class="cls-1" points="781.97 188.13 781.97 202.13 794 202.13 794 188.13"/>
  <polyline class="cls-1" points="669 238.13 459.5 28.64 509 28.64 664.75 184.38 640 209.13"/>
  <line class="cls-1" x1="600.53" y1="169.66" x2="625.28" y2="144.91"/>
  <line class="cls-1" x1="560.06" y1="129.19" x2="584.81" y2="104.44"/>
  <line class="cls-1" x1="521.94" y1="91.08" x2="546.69" y2="66.33"/>
  <line class="cls-1" x1="564" y1="117.13" x2="555.5" y2="108.63"/>
  <line class="cls-1" x1="574" y1="108.13" x2="565.5" y2="99.63"/>
  <line class="cls-1" x1="603" y1="157.13" x2="594.5" y2="148.63"/>
  <line class="cls-1" x1="613" y1="148.13" x2="604.5" y2="139.63"/>
  <line class="cls-1" x1="642" y1="196.13" x2="633.5" y2="187.63"/>
  <line class="cls-1" x1="652" y1="187.13" x2="643.5" y2="178.63"/>
  <path class="cls-1" d="M547.5,79.5" transform="translate(24.5 28.63)"/>
  <polyline class="cls-1" points="929 443.13 929 359.13 966.5 321.63 966.5 214.13 957.25 204.88 957.25 147.13 987.63 116.76 987.63 25.14"/>
  <rect class="cls-1" x="699" y="229.13" width="20" height="8"/>
  <rect class="cls-1" x="699" y="241.13" width="20" height="8"/>
  <rect class="cls-1" x="699" y="253.13" width="20" height="8"/>
  <rect class="cls-1" x="699" y="265.13" width="20" height="8"/>
  <rect class="cls-1" x="732" y="235.13" width="6" height="8"/>
  <rect class="cls-1" x="732" y="247.13" width="6" height="8"/>
  <rect class="cls-1" x="732" y="258.13" width="6" height="8"/>
  <rect class="cls-1" x="732" y="270.13" width="6" height="8"/>
  <rect class="cls-1" x="774" y="229.13" width="20" height="8"/>
  <rect class="cls-1" x="774" y="241.13" width="20" height="8"/>
  <rect class="cls-1" x="774" y="253.13" width="20" height="8"/>
  <rect class="cls-1" x="774" y="265.13" width="20" height="8"/>
  <rect class="cls-1" x="730.5" y="206.5" width="6" height="8" transform="translate(1491.5 449.63) rotate(-180)"/>
  <rect class="cls-1" x="730.5" y="218.5" width="6" height="8" transform="translate(1491.5 473.63) rotate(-180)"/>
  <rect class="cls-1" x="730.5" y="229.5" width="6" height="8" transform="translate(1491.5 495.63) rotate(-180)"/>
  <rect class="cls-1" x="730.5" y="241.5" width="6" height="8" transform="translate(1491.5 519.63) rotate(-180)"/>
  <polyline class="cls-1" points="656.32 175.16 656.32 152.13 530.16 25.97"/>
  <g>
    <rect class="cls-2" x="649" y="151.13" width="3" height="4"/>
    <rect class="cls-2" x="649" y="162.13" width="3" height="4"/>
    <g>
      <rect class="cls-2" x="640" y="142.13" width="3" height="4"/>
      <rect class="cls-2" x="640" y="153.13" width="3" height="4"/>
    </g>
    <g>
      <rect class="cls-2" x="630" y="132.13" width="3" height="4"/>
      <rect class="cls-2" x="630" y="143.13" width="3" height="4"/>
    </g>
    <g>
      <rect class="cls-2" x="619" y="121.13" width="3" height="4"/>
      <rect class="cls-2" x="619" y="132.13" width="3" height="4"/>
    </g>
    <g>
      <rect class="cls-2" x="609" y="111.13" width="3" height="4"/>
      <rect class="cls-2" x="609" y="122.13" width="3" height="4"/>
    </g>
    <g>
      <rect class="cls-2" x="601" y="102.13" width="3" height="4"/>
      <rect class="cls-2" x="601" y="113.13" width="3" height="4"/>
    </g>
    <g>
      <rect class="cls-2" x="592" y="94.13" width="3" height="4"/>
      <rect class="cls-2" x="592" y="105.13" width="3" height="4"/>
    </g>
    <g>
      <rect class="cls-2" x="582" y="84.13" width="3" height="4"/>
      <rect class="cls-2" x="582" y="95.13" width="3" height="4"/>
    </g>
    <g>
      <rect class="cls-2" x="572" y="74.13" width="3" height="4"/>
      <rect class="cls-2" x="572" y="85.13" width="3" height="4"/>
    </g>
  </g>
  <rect class="cls-1" x="733" y="62.13" width="26" height="11"/>
  <rect class="cls-1" x="733" y="45.13" width="26" height="11"/>
  <rect class="cls-1" x="733" y="30.13" width="26" height="11"/>
  <polygon class="cls-1" points="759 30.14 759 73.14 773 73.14 773 64.14 814.97 64.14 825 64.14 825 28.14 759 28.14 759 30.14"/>
  <line class="cls-1" x1="815" y1="28.13" x2="815" y2="64.13"/>
  <line class="cls-1" x1="815" y1="56.13" x2="825" y2="56.13"/>
  <line class="cls-1" x1="815" y1="46.13" x2="825" y2="46.13"/>
  <line class="cls-1" x1="815" y1="36.28" x2="825" y2="36.28"/>
  <polyline class="cls-1" points="875.46 313.09 875.46 113.14 846.73 84.41 846.73 29.14"/>
  <polygon class="cls-1" points="906 305.13 945 305.13 945 265.13 945 225.13 906 225.13 906 266.13 906 305.13"/>
  <line class="cls-1" x1="945" y1="265.13" x2="906" y2="265.13"/>
  <polyline class="cls-1" points="920 225.13 920 150.13 934 150.13 934 225.63"/>
  <line class="cls-1" x1="920" y1="157.13" x2="934" y2="157.13"/>
  <line class="cls-1" x1="920" y1="163.13" x2="934" y2="163.13"/>
  <line class="cls-1" x1="920" y1="169.13" x2="934" y2="169.13"/>
  <line class="cls-1" x1="920" y1="174.13" x2="934" y2="174.13"/>
  <line class="cls-1" x1="920" y1="179.13" x2="934" y2="179.13"/>
  <line class="cls-1" x1="920.5" y1="183.13" x2="934.5" y2="183.13"/>
  <line class="cls-1" x1="920.5" y1="189.13" x2="934.5" y2="189.13"/>
  <line class="cls-1" x1="920.5" y1="195.13" x2="934.5" y2="195.13"/>
  <line class="cls-1" x1="920.5" y1="200.13" x2="934.5" y2="200.13"/>
  <line class="cls-1" x1="920.5" y1="205.13" x2="934.5" y2="205.13"/>
  <line class="cls-1" x1="920.5" y1="210.13" x2="934.5" y2="210.13"/>
  <line class="cls-1" x1="920.5" y1="215.13" x2="934.5" y2="215.13"/>
  <line class="cls-1" x1="920.5" y1="220.13" x2="934.5" y2="220.13"/>
  <polyline class="cls-1" points="937 442.13 937 367.13 980 324.13 980 212.13 967 199.13 967 153.13 996.5 123.64 996.5 51.13 1010.75 36.88 1036 36.88 1043.13 44.01 1050 44.01 1060.44 33.57 1060.44 26.14"/>
  <polyline class="cls-1" points="943 441.13 943 372.13 964 351.13 981 351.13 994 338.13 994 330.13 988 324.13 988 255.13 995 248.13 995 214.13 974 193.13 974 162.13 1002.5 133.63 1002.5 72.14 1015.75 58.88 1046 58.88 1068.88 36.01 1068.88 26.14"/>
  <polyline class="cls-1" points="952 441.13 952 375.13 967 360.13 980 360.13 1001 339.13 1001 329.13 996 324.13 996 258.13 1003.5 250.63 1003.5 207.13 980.75 184.38 980.75 167.13 1007.88 140.01 1007.88 110.14 1074.94 43.07 1074.94 26.14"/>
  <polyline class="cls-1" points="967 441.13 967 381.13 1011 337.13 1011 183.13 1002.5 174.63 1002.5 153.13 1016.75 138.88 1016.75 109.14 1083.38 42.51 1083.38 19.14"/>
  <polyline class="cls-1" points="974 442.13 974 383.13 1017.5 339.63 1017.5 176.13 1010.75 169.38 1010.75 154.13 1025.88 139.01 1025.88 110.14 1046.94 89.07 1056 89.07 1089.47 55.6 1089.47 23.14"/>
  <polyline class="cls-1" points="994 439.13 994 368.13 1025 337.13 1025 288.13 1060.5 252.63 1073 252.63 1090.25 235.38 1090.25 197.13 1119.13 168.26 1119.13 81.14 1097.06 59.07 1097.06 25.14"/>
  <polyline class="cls-1" points="926 149.13 926 123.14 931 123.14 931 119.14 934 119.14 934 106.14 943 106.14 943 82.14 961 82.14 961 110.14 943 110.14 943 106.14"/>
  <line class="cls-1" x1="928" y1="27.13" x2="928" y2="55.13"/>
  <line class="cls-1" x1="935" y1="27.13" x2="935" y2="42.13"/>
  <line class="cls-1" x1="945" y1="28.13" x2="945" y2="55.13"/>
  <line class="cls-1" x1="951" y1="28.13" x2="951" y2="41.13"/>
  <line class="cls-1" x1="941" y1="26.13" x2="941" y2="57.13"/>
  <line class="cls-1" x1="958" y1="28.13" x2="958" y2="53.13"/>
  <polyline class="cls-1" points="977 27.14 966 38.13 966 46.13"/>
  <line class="cls-1" x1="906" y1="26.13" x2="895" y2="37.13"/>
  <polyline class="cls-1" points="1034 229.13 1044 229.13 1044 148.13 1034 148.13"/>
  <line class="cls-1" x1="1044" y1="201.13" x2="1034" y2="201.13"/>
  <line class="cls-1" x1="1044" y1="173.13" x2="1034" y2="173.13"/>
  <rect class="cls-1" x="1048" y="200.13" width="20" height="30"/>
  <line class="cls-1" x1="1048" y1="224.13" x2="1068" y2="224.13"/>
  <line class="cls-1" x1="1048" y1="218.13" x2="1068" y2="218.13"/>
  <line class="cls-1" x1="1050" y1="230.13" x2="1050" y2="233.13"/>
  <line class="cls-1" x1="1052" y1="230.13" x2="1052" y2="235.13"/>
  <line class="cls-1" x1="1055" y1="230.13" x2="1055" y2="233.13"/>
  <line class="cls-1" x1="1058" y1="230.13" x2="1058" y2="236.13"/>
  <line class="cls-1" x1="1060" y1="230.13" x2="1060" y2="234.13"/>
  <line class="cls-1" x1="1063" y1="230.13" x2="1063" y2="236.13"/>
  <line class="cls-1" x1="1066" y1="230.13" x2="1066" y2="232.13"/>
  <polyline class="cls-1" points="1002 441.13 1002 367.13 1031.5 337.63 1031.5 286.13 1059.75 257.88 1074 257.88 1097.88 234.01 1097.88 198.13 1117.44 178.57"/>
  <polyline class="cls-1" points="1115 189.13 1105 199.13 1105 238.13 1077.5 265.63 1060 265.63 1038.75 286.88 1038.75 340.13 1009.38 369.51 1009.38 440.13"/>
  <polyline class="cls-1" points="1018 441.13 1018 368.13 1046.5 339.63 1046.5 287.13 1060.25 273.38 1099 273.38 1156.13 216.26 1156.13 198.13 1127.06 169.07 1127.06 60.13 1117.53 50.6 1117.53 25.14"/>
  <polyline class="cls-1" points="1023 441.13 1023 367.13 1054 336.13 1054 289.13 1063 280.13 1101 280.13 1166 213.13 1166 197.13 1137 169.13"/>
  <polyline class="cls-1" points="1030 440.13 1030 366.13 1060.5 335.63 1060.5 328.13 1169.25 219.38 1169.25 191.13 1142.13 164.01 1142.13 58.13 1149.56 50.7 1149.56 26.14"/>
  <polyline class="cls-1" points="1038 441.13 1038 366.13 1075 329.13 1075 321.13 1178.5 217.63 1178.5 189.13 1150.75 161.38 1150.75 56.13 1157.88 49.01 1157.88 25.14"/>
  <polyline class="cls-1" points="1048 441.13 1048 367.13 1092 323.13 1092 314.13 1177 229.13 1186 229.13 1229 186.13 1237 186.13 1399 24.14"/>
  <polyline class="cls-1" points="1163 25.14 1163 50.13 1155 58.13 1155 160.13"/>
  <polyline class="cls-1" points="1178 27.14 1178 44.13 1162 60.13 1162 167.13"/>
  <polyline class="cls-1" points="1203 27.14 1171.5 58.63 1171.5 172.13"/>
  <polyline class="cls-1" points="1213 25.14 1177 61.13 1177 182.13"/>
  <polyline class="cls-1" points="1216 29.14 1184.5 60.63 1184.5 75.14 1193.25 83.89 1193.25 141.13 1185.63 148.76 1185.63 163.13"/>
  <polyline class="cls-1" points="1184 178.13 1200.5 161.63 1200.5 58.13 1235.25 23.39"/>
  <polyline class="cls-1" points="1188 198.13 1209 177.13 1209 58.13 1246 21.14"/>
  <polyline class="cls-1" points="1185 213.13 1221 177.13 1221 167.13 1336.5 51.63 1356 51.63 1389.75 17.89"/>
  <polyline class="cls-1" points="1369 22.14 1346 45.13 1329 45.13 1215.5 158.63"/>
  <polyline class="cls-1" points="1054 439.13 1054 367.13 1068 353.13 1085 353.13 1125.5 312.63 1125.5 286.13 1154.75 256.88 1172 256.88 1192.38 236.51 1192.38 227.13 1227.69 191.82 1238 191.82 1402.84 26.98"/>
  <polyline class="cls-1" points="1061 440.13 1061 368.13 1069 360.13 1082 360.13 1133.5 308.63 1133.5 286.13 1154.75 264.88 1179 264.88 1206.38 237.51 1206.38 221.13 1228.69 198.82 1239 198.82 1419.84 17.98"/>
  <polyline class="cls-1" points="1068 441.13 1068 382.13 1139.5 310.63 1139.5 287.13 1155.75 270.88 1181 270.88 1213.88 238.01 1213.88 221.13 1227.44 207.57 1236 207.57 1443.22 0.35"/>
  <polyline class="cls-1" points="1075 441.13 1075 383.13 1148 310.13 1148 286.13 1155.5 278.63 1180 278.63 1222.75 235.88 1222.75 220.13 1228.88 214.01 1238 214.01 1432.44 19.57"/>
  <polyline class="cls-1" points="1083 440.13 1083 382.13 1446.5 18.64"/>
  <path class="cls-1" d="M1068.5,412.5v-46L1105,330V314.5l211.25-211.25h23.25l93.88-93.87V-1.5" transform="translate(24.5 28.63)"/>
  <polyline class="cls-1" points="683.85 283.16 683.85 289.13 745 289.13 745 306.13 703 306.13 703 289.13"/>
  <line class="cls-1" x1="719" y1="288.63" x2="719" y2="272.63"/>
  <polyline class="cls-1" points="780.21 273.63 780.21 288.13 753 288.13 753 314.13 794 314.13 794 273.63"/>
  <rect class="cls-1" x="1107" y="437.13" width="11" height="5"/>
  <rect class="cls-1" x="1107" y="428.13" width="11" height="5"/>
  <rect class="cls-1" x="1107" y="418.13" width="11" height="5"/>
  <rect class="cls-1" x="1107" y="408.13" width="11" height="5"/>
  <rect class="cls-1" x="1102.5" y="362.5" width="27" height="17" transform="translate(613.71 -651.83) rotate(45)"/>
  <rect class="cls-1" x="1121.5" y="343.5" width="27" height="17" transform="translate(605.84 -670.83) rotate(45)"/>
  <rect class="cls-1" x="1140.5" y="321.5" width="27" height="17" transform="translate(595.84 -690.71) rotate(45)"/>
  <rect class="cls-1" x="882" y="544.13" width="8" height="10"/>
  <rect class="cls-1" x="882" y="534.13" width="8" height="10"/>
  <rect class="cls-1" x="882" y="524.13" width="8" height="10"/>
  <rect class="cls-1" x="882" y="514.13" width="8" height="10"/>
  <rect class="cls-1" x="882" y="504.13" width="8" height="10"/>
  <rect class="cls-1" x="882" y="494.13" width="8" height="10"/>
  <rect class="cls-1" x="882" y="483.13" width="8" height="10"/>
  <rect class="cls-1" x="882" y="473.13" width="8" height="10"/>
  <polyline class="cls-1" points="857 466.13 879 466.13 886 473.13 911 473.13 911 465.13 890 465.13 890 473.13"/>
  <line class="cls-1" x1="900.68" y1="473.13" x2="900.68" y2="465.13"/>
  <rect class="cls-1" x="929" y="465.13" width="23" height="11"/>
  <rect class="cls-1" x="959" y="465.13" width="23" height="11"/>
  <rect class="cls-1" x="988" y="465.13" width="23" height="11"/>
  <rect class="cls-1" x="1011" y="465.13" width="23" height="11"/>
  <rect class="cls-1" x="1034" y="465.13" width="23" height="11"/>
  <rect class="cls-1" x="1057" y="465.13" width="23" height="11"/>
  <rect class="cls-1" x="1080" y="465.13" width="23" height="11"/>
  <line class="cls-1" x1="988" y1="473.13" x2="1103" y2="473.13"/>
  <line class="cls-1" x1="982" y1="473.13" x2="959" y2="473.13"/>
  <line class="cls-1" x1="952" y1="473.13" x2="929" y2="473.13"/>
  <polyline class="cls-1" points="1103 465.13 1110 465.13 1203.5 371.63 1194.05 362.18"/>
  <line class="cls-1" x1="1175" y1="384.13" x2="1183" y2="392.13"/>
  <line class="cls-1" x1="1156" y1="403.13" x2="1164" y2="411.13"/>
  <line class="cls-1" x1="1192" y1="364.13" x2="1201.5" y2="373.63"/>
  <line class="cls-1" x1="1173" y1="386.13" x2="1181" y2="394.13"/>
  <line class="cls-1" x1="1154" y1="405.13" x2="1162" y2="413.13"/>
  <line class="cls-1" x1="1118" y1="408.13" x2="1127.49" y2="398.65"/>
  <line class="cls-1" x1="1113" y1="413.63" x2="1113" y2="418.13"/>
  <line class="cls-1" x1="1113" y1="423.63" x2="1113" y2="428.13"/>
  <line class="cls-1" x1="1113" y1="432.63" x2="1113" y2="437.13"/>
  <polyline class="cls-1" points="1175 343.13 1191.5 326.63 1191.5 318.13 1234 318.13 1234 355.13 1207 355.13 1191.5 339.63 1191.5 326.13"/>
  <path class="cls-1" d="M1171.5,307.5" transform="translate(24.5 28.63)"/>
  <path class="cls-1" d="M1171.5,300.5" transform="translate(24.5 28.63)"/>
  <path class="cls-1" d="M1171.5,305" transform="translate(24.5 28.63)"/>
  <path class="cls-1" d="M1171.5,298" transform="translate(24.5 28.63)"/>
  <line class="cls-1" x1="1192" y1="325.13" x2="1205" y2="325.13"/>
  <line class="cls-1" x1="1191" y1="331.13" x2="1209" y2="331.13"/>
  <line class="cls-1" x1="1192" y1="338.13" x2="1201" y2="338.13"/>
  <rect class="cls-1" x="1234" y="310.13" width="12" height="6"/>
  <rect class="cls-1" x="1234" y="319.13" width="12" height="6"/>
  <rect class="cls-1" x="1234" y="292.13" width="12" height="6"/>
  <rect class="cls-1" x="1234" y="301.13" width="12" height="6"/>
  <rect class="cls-1" x="1234" y="329.13" width="12" height="6"/>
  <rect class="cls-1" x="1234" y="339.13" width="12" height="6"/>
  <rect class="cls-1" x="1234" y="349.13" width="12" height="6"/>
  <line class="cls-1" x1="1226.44" y1="355.13" x2="1226.44" y2="403.13"/>
  <line class="cls-1" x1="1227" y1="398.13" x2="1216" y2="398.13"/>
  <line class="cls-1" x1="1226" y1="394.13" x2="1224" y2="394.13"/>
  <line class="cls-1" x1="1226" y1="389.13" x2="1215" y2="389.13"/>
  <line class="cls-1" x1="1226" y1="379.13" x2="1217" y2="379.13"/>
  <line class="cls-1" x1="1226" y1="383.13" x2="1218" y2="383.13"/>
  <path class="cls-1" d="M1092.5,456.5h60s16-17,16-16v-8l20-20h10L1227,384V359.5l27.25-27.25V252.5l44.63-44.62h45.62l13.69-13.69h98.31l6.16,6.15H1683.5l14.08,14.08H1823.5l15-15h89" transform="translate(24.5 28.63)"/>
  <polyline class="cls-1" points="1116 494.13 1177 494.13 1259.5 411.63 1259.5 394.13 1287.75 365.88 1287.75 287.13 1323.38 251.51 1378 251.51 1393.19 236.32 1707 236.32 1727.41 256.73 1947 256.73"/>
  <line class="cls-1" x1="1734" y1="250.13" x2="1953" y2="250.13"/>
  <polyline class="cls-1" points="1094 500.13 1178 500.13 1265 413.13 1265 401.13 1294.5 371.63 1294.5 295.13 1323.25 266.38 1389 266.38 1411.63 243.76 1707 243.76 1736.19 272.95 1841 272.95 1849.59 281.54 1949 281.54"/>
  <line class="cls-1" x1="1947" y1="265.13" x2="1737" y2="265.13"/>
  <polygon class="cls-1" points="1446 270.13 1446 280.13 1463 297.13 1494 297.13 1494 270.13 1446 270.13"/>
  <rect class="cls-1" x="1497" y="270.13" width="27" height="27"/>
  <polyline class="cls-1" points="1100 507.13 1178 507.13 1266.5 418.63 1309 418.63 1316.25 411.38 1346 411.38 1425.63 331.76 1470 331.76 1505.69 367.45 1853 367.45 1880.66 339.79 1947 339.79"/>
  <line class="cls-1" x1="1950.5" y1="311.13" x2="1862.5" y2="311.13"/>
  <line class="cls-1" x1="1948.5" y1="319.13" x2="1864.5" y2="319.13"/>
  <line class="cls-1" x1="1949.5" y1="326.13" x2="1870.5" y2="326.13"/>
  <line class="cls-1" x1="1948.5" y1="333.13" x2="1881.5" y2="333.13"/>
  <path class="cls-1" d="M1861.5,306.5" transform="translate(24.5 28.63)"/>
  <path class="cls-1" d="M1925.5,306.5" transform="translate(24.5 28.63)"/>
  <line class="cls-1" x1="1953.5" y1="391.13" x2="1869.5" y2="391.13"/>
  <line class="cls-1" x1="1954.5" y1="398.13" x2="1875.5" y2="398.13"/>
  <line class="cls-1" x1="1953.5" y1="405.13" x2="1886.5" y2="405.13"/>
  <path class="cls-1" d="M1930.5,378.5" transform="translate(24.5 28.63)"/>
  <polygon class="cls-1" points="1325 346.13 1340.5 361.63 1323.5 378.63 1314 369.13 1314 357.13 1325 346.13"/>
  <polygon class="cls-1" points="1338 333.13 1353.5 348.63 1370.5 331.63 1361 322.13 1349 322.13 1338 333.13"/>
  <line class="cls-1" x1="1325" y1="346.13" x2="1338.5" y2="332.63"/>
  <rect class="cls-1" x="1300.93" y="333.28" width="63.64" height="4.95" transform="translate(177.44 1069.37) rotate(-45)"/>
  <rect class="cls-1" x="1359.93" y="351.28" width="63.64" height="4.95" transform="translate(182 1116.36) rotate(-45)"/>
  <polyline class="cls-1" points="1294.5 362.18 1298.77 357.91 1298.77 345.13 1348.39 295.52 1433 295.52 1455.31 317.83 1661 317.83 1667.35 311.48 1705 311.48 1733.67 282.81 1823 282.81 1843.66 303.47 1954 303.47"/>
  <polyline class="cls-1" points="1095 518.13 1174 518.13 1263.5 428.63 1432 428.63 1476.75 383.88 1853 383.88 1883.13 414.01 1949 414.01"/>
  <polyline class="cls-1" points="1109 524.13 1176 524.13 1263.5 436.63 1432 436.63 1475.75 392.88 1625 392.88 1632.63 400.51 1855 400.51 1880.81 426.32 1955 426.32"/>
  <polyline class="cls-1" points="1116 532.13 1176 532.13 1192.5 515.63 1201 515.63 1218.75 497.88 1218.75 487.13 1262.38 443.51 1434 443.51 1478.19 399.32 1621 399.32 1631.41 409.73 1852 409.73 1879.2 436.93 1948 436.93"/>
  <polyline class="cls-1" points="1086 567.13 1108 567.13 1108 547.13 1153 547.13 1153 607.13 1108 607.13 1108 567.13"/>
  <line class="cls-1" x1="1108" y1="596.13" x2="1086" y2="596.13"/>
  <line class="cls-1" x1="1086" y1="566.64" x2="1086" y2="572.63"/>
  <line class="cls-1" x1="1097" y1="567.13" x2="1097" y2="572.13"/>
  <line class="cls-1" x1="1098" y1="595.63" x2="1098" y2="600.63"/>
  <line class="cls-1" x1="1091" y1="595.63" x2="1091" y2="600.63"/>
  <line class="cls-1" x1="1108" y1="553.13" x2="1126" y2="553.13"/>
  <line class="cls-1" x1="1108" y1="567.13" x2="1125" y2="567.13"/>
  <line class="cls-1" x1="1108" y1="583.13" x2="1125" y2="583.13"/>
  <line class="cls-1" x1="1108" y1="596.13" x2="1126" y2="596.13"/>
  <line class="cls-1" x1="1158.5" y1="569.13" x2="1175.5" y2="569.13"/>
  <line class="cls-1" x1="1157.5" y1="554.13" x2="1174.5" y2="554.13"/>
  <line class="cls-1" x1="1158.5" y1="585.13" x2="1175.5" y2="585.13"/>
  <line class="cls-1" x1="1158.5" y1="598.13" x2="1176.5" y2="598.13"/>
  <rect class="cls-1" x="1158" y="547.13" width="44" height="60"/>
  <rect class="cls-1" x="1202" y="547.13" width="12" height="11"/>
  <rect class="cls-1" x="1202" y="558.13" width="12" height="11"/>
  <rect class="cls-1" x="1202" y="569.13" width="12" height="11"/>
  <rect class="cls-1" x="1202" y="580.13" width="12" height="11"/>
  <rect class="cls-1" x="1202" y="591.13" width="12" height="11"/>
  <rect class="cls-1" x="1222" y="515.13" width="13" height="121"/>
  <line class="cls-1" x1="1228" y1="519.13" x2="1228" y2="523.13"/>
  <line class="cls-1" x1="1228" y1="530.63" x2="1228" y2="534.63"/>
  <line class="cls-1" x1="1228" y1="539.13" x2="1228" y2="543.13"/>
  <line class="cls-1" x1="1228" y1="550.63" x2="1228" y2="554.63"/>
  <line class="cls-1" x1="1228" y1="559.13" x2="1228" y2="563.13"/>
  <line class="cls-1" x1="1228" y1="568.63" x2="1228" y2="572.63"/>
  <line class="cls-1" x1="1228" y1="579.13" x2="1228" y2="583.13"/>
  <line class="cls-1" x1="1228" y1="588.63" x2="1228" y2="592.63"/>
  <line class="cls-1" x1="1228" y1="598.13" x2="1228" y2="602.13"/>
  <line class="cls-1" x1="1228" y1="607.63" x2="1228" y2="611.63"/>
  <line class="cls-1" x1="1228" y1="618.13" x2="1228" y2="622.13"/>
  <line class="cls-1" x1="1228" y1="627.63" x2="1228" y2="631.63"/>
  <line class="cls-1" x1="1249" y1="519.13" x2="1249" y2="523.13"/>
  <line class="cls-1" x1="1249" y1="530.63" x2="1249" y2="534.63"/>
  <line class="cls-1" x1="1249" y1="539.13" x2="1249" y2="543.13"/>
  <line class="cls-1" x1="1249" y1="550.63" x2="1249" y2="554.63"/>
  <line class="cls-1" x1="1249" y1="559.13" x2="1249" y2="563.13"/>
  <line class="cls-1" x1="1249" y1="568.63" x2="1249" y2="572.63"/>
  <line class="cls-1" x1="1249" y1="579.13" x2="1249" y2="583.13"/>
  <line class="cls-1" x1="1249" y1="588.63" x2="1249" y2="592.63"/>
  <line class="cls-1" x1="1249" y1="598.13" x2="1249" y2="602.13"/>
  <line class="cls-1" x1="1249" y1="607.63" x2="1249" y2="611.63"/>
  <line class="cls-1" x1="1249" y1="618.13" x2="1249" y2="622.13"/>
  <line class="cls-1" x1="1249" y1="627.63" x2="1249" y2="631.63"/>
  <line class="cls-1" x1="1258" y1="519.13" x2="1258" y2="523.13"/>
  <line class="cls-1" x1="1258" y1="530.63" x2="1258" y2="534.63"/>
  <line class="cls-1" x1="1258" y1="539.13" x2="1258" y2="543.13"/>
  <line class="cls-1" x1="1258" y1="550.63" x2="1258" y2="554.63"/>
  <line class="cls-1" x1="1258" y1="559.13" x2="1258" y2="563.13"/>
  <line class="cls-1" x1="1258" y1="568.63" x2="1258" y2="572.63"/>
  <line class="cls-1" x1="1258" y1="579.13" x2="1258" y2="583.13"/>
  <line class="cls-1" x1="1258" y1="588.63" x2="1258" y2="592.63"/>
  <line class="cls-1" x1="1258" y1="598.13" x2="1258" y2="602.13"/>
  <line class="cls-1" x1="1258" y1="607.63" x2="1258" y2="611.63"/>
  <line class="cls-1" x1="1258" y1="618.13" x2="1258" y2="622.13"/>
  <line class="cls-1" x1="1258" y1="627.63" x2="1258" y2="631.63"/>
  <polyline class="cls-1" points="1235 515.13 1235 497.13 1243 489.13 1266 489.13 1266 637.13 1245 637.13 1235.25 627.38"/>
  <polyline class="cls-1" points="1253.72 489.13 1274.86 467.99 1287 467.99"/>
  <rect class="cls-1" x="1287" y="463.13" width="27" height="18"/>
  <rect class="cls-1" x="1287" y="481.13" width="27" height="18"/>
  <rect class="cls-1" x="1322" y="463.13" width="11" height="38"/>
  <rect class="cls-1" x="1342" y="468.13" width="11" height="8"/>
  <rect class="cls-1" x="1353" y="468.13" width="11" height="8"/>
  <rect class="cls-1" x="1353" y="476.13" width="11" height="8"/>
  <rect class="cls-1" x="1342" y="476.13" width="11" height="8"/>
  <rect class="cls-1" x="1342" y="484.13" width="11" height="8"/>
  <rect class="cls-1" x="1353" y="484.13" width="11" height="8"/>
  <line class="cls-1" x1="1310" y1="463.13" x2="1326" y2="463.13"/>
  <line class="cls-1" x1="1314" y1="473.13" x2="1305" y2="473.13"/>
  <line class="cls-1" x1="1314" y1="492.13" x2="1306" y2="492.13"/>
  <polyline class="cls-1" points="1364 468.13 1372.79 468.13 1392 468.13"/>
  <polyline class="cls-1" points="1373 468.13 1373 529.13 1391 529.13"/>
  <line class="cls-1" x1="1378" y1="475.13" x2="1392" y2="475.13"/>
  <line class="cls-1" x1="1389" y1="482.13" x2="1392" y2="482.13"/>
  <line class="cls-1" x1="1373" y1="489.13" x2="1391" y2="489.13"/>
  <line class="cls-1" x1="1373" y1="498.13" x2="1391" y2="498.13"/>
  <line class="cls-1" x1="1378" y1="504.13" x2="1391" y2="504.13"/>
  <line class="cls-1" x1="1389" y1="511.13" x2="1392" y2="511.13"/>
  <line class="cls-1" x1="1373" y1="518.13" x2="1391" y2="518.13"/>
  <line class="cls-1" x1="1392" y1="468.13" x2="1422" y2="468.13"/>
  <line class="cls-1" x1="1422" y1="468.13" x2="1422" y2="526.13"/>
  <polygon class="cls-1" points="1410 144.13 1410 190.13 1423.5 203.63 1443 203.63 1443 144.13 1410 144.13"/>
  <line class="cls-1" x1="1443" y1="144.13" x2="1500.5" y2="144.13"/>
  <rect class="cls-1" x="1399" y="170.13" width="11" height="11"/>
  <line class="cls-1" x1="1410" y1="170.13" x2="1443" y2="170.13"/>
  <line class="cls-1" x1="1410" y1="181.13" x2="1443" y2="181.13"/>
  <line class="cls-1" x1="1451" y1="144.13" x2="1451" y2="200.13"/>
  <line class="cls-1" x1="1470" y1="144.13" x2="1470" y2="198.13"/>
  <line class="cls-1" x1="1451" y1="147.13" x2="1456" y2="147.13"/>
  <line class="cls-1" x1="1451" y1="156.13" x2="1456" y2="156.13"/>
  <line class="cls-1" x1="1451" y1="166.13" x2="1456" y2="166.13"/>
  <line class="cls-1" x1="1451" y1="176.13" x2="1456" y2="176.13"/>
  <line class="cls-1" x1="1451" y1="184.13" x2="1457" y2="184.13"/>
  <line class="cls-1" x1="1451" y1="192.13" x2="1456" y2="192.13"/>
  <line class="cls-1" x1="1470" y1="196.13" x2="1465" y2="196.13"/>
  <line class="cls-1" x1="1470" y1="188.13" x2="1465" y2="188.13"/>
  <line class="cls-1" x1="1470" y1="179.13" x2="1465" y2="179.13"/>
  <line class="cls-1" x1="1470" y1="170.13" x2="1465" y2="170.13"/>
  <line class="cls-1" x1="1470" y1="161.13" x2="1466" y2="161.13"/>
  <line class="cls-1" x1="1470" y1="150.13" x2="1465" y2="150.13"/>
  <line class="cls-1" x1="1475" y1="144.13" x2="1475" y2="200.13"/>
  <line class="cls-1" x1="1494" y1="144.13" x2="1494" y2="198.13"/>
  <line class="cls-1" x1="1475" y1="147.13" x2="1480" y2="147.13"/>
  <line class="cls-1" x1="1475" y1="156.13" x2="1480" y2="156.13"/>
  <line class="cls-1" x1="1475" y1="166.13" x2="1480" y2="166.13"/>
  <line class="cls-1" x1="1475" y1="176.13" x2="1480" y2="176.13"/>
  <line class="cls-1" x1="1475" y1="184.13" x2="1481" y2="184.13"/>
  <line class="cls-1" x1="1475" y1="192.13" x2="1480" y2="192.13"/>
  <line class="cls-1" x1="1494" y1="196.13" x2="1489" y2="196.13"/>
  <line class="cls-1" x1="1494" y1="188.13" x2="1489" y2="188.13"/>
  <line class="cls-1" x1="1494" y1="179.13" x2="1489" y2="179.13"/>
  <line class="cls-1" x1="1494" y1="170.13" x2="1489" y2="170.13"/>
  <line class="cls-1" x1="1494" y1="161.13" x2="1490" y2="161.13"/>
  <line class="cls-1" x1="1494" y1="150.13" x2="1489" y2="150.13"/>
  <rect class="cls-1" x="1500" y="135.13" width="64" height="77"/>
  <line class="cls-1" x1="1524" y1="170.13" x2="1541" y2="170.13"/>
  <line class="cls-1" x1="1517" y1="177.13" x2="1547.5" y2="177.13"/>
  <line class="cls-1" x1="1528" y1="186.13" x2="1540" y2="186.13"/>
  <line class="cls-1" x1="1508" y1="196.13" x2="1554" y2="196.13"/>
  <g>
    <line class="cls-1" x1="1569" y1="143.13" x2="1592" y2="143.13"/>
    <line class="cls-1" x1="1569" y1="143.13" x2="1569" y2="149.13"/>
  </g>
  <g>
    <line class="cls-1" x1="1569" y1="154.13" x2="1592" y2="154.13"/>
    <line class="cls-1" x1="1569" y1="154.13" x2="1569" y2="160.13"/>
  </g>
  <g>
    <line class="cls-1" x1="1569" y1="163.13" x2="1592" y2="163.13"/>
    <line class="cls-1" x1="1569" y1="163.13" x2="1569" y2="169.13"/>
  </g>
  <g>
    <line class="cls-1" x1="1569" y1="174.13" x2="1592" y2="174.13"/>
    <line class="cls-1" x1="1569" y1="174.13" x2="1569" y2="180.13"/>
  </g>
  <g>
    <line class="cls-1" x1="1569" y1="184.13" x2="1592" y2="184.13"/>
    <line class="cls-1" x1="1569" y1="184.13" x2="1569" y2="190.13"/>
  </g>
  <g>
    <line class="cls-1" x1="1569" y1="195.13" x2="1592" y2="195.13"/>
    <line class="cls-1" x1="1569" y1="195.13" x2="1569" y2="201.13"/>
  </g>
  <rect class="cls-1" x="1600" y="79.13" width="57" height="57"/>
  <polyline class="cls-1" points="1600 165.13 1613 165.13 1613 184.13 1658 184.13 1658 146.13 1613 146.13 1613 165.13"/>
  <line class="cls-1" x1="1613" y1="165.13" x2="1658" y2="165.13"/>
  <line class="cls-1" x1="1658" y1="146.13" x2="1668" y2="146.13"/>
  <line class="cls-1" x1="1658" y1="156.13" x2="1668" y2="156.13"/>
  <line class="cls-1" x1="1658" y1="165.13" x2="1669" y2="165.13"/>
  <line class="cls-1" x1="1658" y1="174.13" x2="1668" y2="174.13"/>
  <line class="cls-1" x1="1658" y1="184.13" x2="1668" y2="184.13"/>
  <g>
    <circle class="cls-1" cx="1721.5" cy="175.63" r="12.5"/>
    <line class="cls-1" x1="1713" y1="185.13" x2="1730.5" y2="167.63"/>
  </g>
  <g>
    <circle class="cls-1" cx="1762.5" cy="175.63" r="12.5"/>
    <line class="cls-1" x1="1754" y1="185.13" x2="1771.5" y2="167.63"/>
  </g>
  <g>
    <circle class="cls-1" cx="1801.5" cy="176.63" r="12.5"/>
    <line class="cls-1" x1="1793" y1="186.13" x2="1810.5" y2="168.63"/>
  </g>
  <g>
    <circle class="cls-1" cx="1840.5" cy="176.63" r="12.5"/>
    <line class="cls-1" x1="1832" y1="186.13" x2="1849.5" y2="168.63"/>
  </g>
  <polygon class="cls-1" points="1463 444.13 1474 433.13 1492 433.13 1492 473.13 1463 473.13 1463 444.13"/>
  <rect class="cls-1" x="1497" y="433.13" width="50" height="40"/>
  <rect class="cls-1" x="1550" y="433.13" width="50" height="40"/>
  <rect class="cls-1" x="1604" y="433.13" width="60" height="40"/>
  <polygon class="cls-1" points="1670 434.13 1703 434.13 1703 461.13 1693 471.13 1670 471.13 1670 434.13"/>
  <line class="cls-1" x1="1298" y1="524.13" x2="1333" y2="524.13"/>
  <line class="cls-1" x1="1303" y1="532.13" x2="1335" y2="532.13"/>
  <line class="cls-1" x1="1299" y1="538.13" x2="1330" y2="538.13"/>
  <path class="cls-1" d="M1269.5,516.5h147L1443,490h30.5l22.25-22.25h67.75l32.88,32.88h64.12l78.56-78.57h85.44l51.72,51.72h50.28" transform="translate(24.5 28.63)"/>
  <polyline class="cls-1" points="1294 553.13 1513 553.13 1541 581.13 1556 581.13 1577.5 602.63 1586 602.63 1621.75 566.88 1702 566.88 1781.88 487.01 1830 487.01 1850.56 507.57 1953 507.57"/>
  <polyline class="cls-1" points="1302 561.13 1441 561.13 1469 589.13 1499 589.13 1521.5 611.63 1586 611.63 1621.75 575.88 1703 575.88 1783.38 495.51 1831 495.51 1851.81 516.32 1950 516.32"/>
  <polyline class="cls-1" points="1297 568.13 1437 568.13 1468.5 599.63 1479 599.63 1496.75 617.38 1587 617.38 1621.13 583.26 1705 583.26 1785.06 503.2 1830 503.2 1852.97 526.17 1952 526.17"/>
  <polyline class="cls-1" points="1302 577.13 1434 577.13 1453.5 596.63"/>
  <polyline class="cls-1" points="1301 583.13 1428 583.13 1449 604.13 1477 604.13 1500 627.13 1588 627.13 1624 591.13 1704 591.13 1784 511.13 1829 511.13 1851 533.13 1952 533.13"/>
  <line class="cls-1" x1="1305" y1="591.13" x2="1421" y2="591.13"/>
  <line class="cls-1" x1="1297" y1="596.13" x2="1373" y2="596.13"/>
  <polyline class="cls-1" points="1305 605.13 1377 605.13 1386 596.13 1433 596.13"/>
  <line class="cls-1" x1="1300" y1="613.13" x2="1474" y2="613.13"/>
  <line class="cls-1" x1="1303" y1="619.13" x2="1478" y2="619.13"/>
  <polyline class="cls-1" points="1298 627.13 1463 627.13 1476 640.13 1608 640.13 1621.5 626.63 1674 626.63 1688.75 611.88 1688.75 603.13 1694.88 597.01"/>
  <polyline class="cls-1" points="1115 627.13 1147 627.13 1155.5 618.63 1193 618.63 1228.25 653.88 1244 653.88 1258.13 668.01 1258.13 681.13 1276.56 699.57 1418 699.57 1437.22 680.35 1465 680.35 1480.61 664.74 1595 664.74 1623.81 635.94 1674 635.94 1789.9 520.04 1822 520.04 1836.05 534.09 1836.05 547.13"/>
  <rect class="cls-1" x="1818" y="547.13" width="35" height="31"/>
  <polygon class="cls-1" points="1781 607.13 1801.5 586.63 1858 586.63 1858 642.13 1781 642.13 1781 607.13"/>
  <rect class="cls-1" x="1822" y="597.13" width="27" height="35"/>
  <rect class="cls-1" x="1822" y="642.13" width="31" height="35"/>
  <rect class="cls-1" x="1487" y="694.13" width="115" height="10" rx="2.41"/>
  <rect class="cls-1" x="1488" y="684.13" width="14" height="10" rx="2.65"/>
  <rect class="cls-1" x="1507" y="684.13" width="14" height="10" rx="2.65"/>
  <rect class="cls-1" x="1527" y="684.13" width="14" height="10" rx="2.65"/>
  <rect class="cls-1" x="1546" y="684.13" width="14" height="10" rx="2.65"/>
  <rect class="cls-1" x="1566" y="684.13" width="14" height="10" rx="2.65"/>
  <rect class="cls-1" x="1587" y="684.13" width="14" height="10" rx="2.65"/>
  <polyline class="cls-1" points="1108 634.13 1147 634.13 1154 627.13 1184 627.13 1220 663.13 1236 663.13 1250.5 677.63 1250.5 691.13 1263.25 703.88 1350 703.88 1361.13 715.01 1416 715.01 1444.56 743.57 1463 743.57 1475.28 755.85 1475.28 764.13 1485.14 773.99 1527 773.99 1542.43 758.56 1572 758.56 1588.29 774.85 1599 774.85 1636.36 737.49 1668 737.49 1704.18 701.31 1802 701.31 1814.41 713.72 1847 713.72 1865.8 694.93 1933 694.93 1948.1 710.03"/>
  <polyline class="cls-1" points="1361 707.13 1419 707.13 1445.5 733.63 1463 733.63 1486.25 756.88 1527 756.88 1533.88 750.01 1581 750.01 1595.06 764.07 1602 764.07 1635.97 730.1 1668 730.1 1703.98 694.12 1837 694.12 1837 677.05"/>
  <line class="cls-1" x1="1112" y1="641.13" x2="1128" y2="641.13"/>
  <polyline class="cls-1" points="1111 648.13 1140 648.13 1146.5 641.63 1184 641.63 1211.75 669.38 1227 669.38 1241.38 683.76 1241.38 700.13 1255.19 713.95 1343 713.95 1351.09 722.04 1410 722.04 1439.55 751.59 1455 751.59 1468.77 765.36 1468.77 773.13 1475.89 780.25 1527 780.25 1535.06 772.19 1544 772.19 1550.53 765.66 1565 765.66 1581.24 781.9 1602 781.9 1637.88 746.02 1667 746.02 1704.94 708.08 1790 708.08 1803.03 721.11 1849 721.11 1868.48 701.62 1927 701.62 1950.76 725.38"/>
  <polyline class="cls-1" points="1109 655.13 1139 655.13 1146 648.13 1178 648.13 1258.5 728.63 1410 728.63 1469.75 788.38 1601 788.38 1630.63 758.76 1664 758.76 1706.31 716.45 1769 716.45 1781.34 728.79 1873 728.79 1879.83 721.96 1904 721.96 1913.09 731.05 1951 731.05"/>
  <rect class="cls-1" x="1077" y="621.13" width="9" height="67"/>
  <rect class="cls-1" x="1077" y="627.13" width="6" height="6"/>
  <rect class="cls-1" x="1077" y="638.13" width="6" height="6"/>
  <rect class="cls-1" x="1077" y="647.13" width="6" height="6"/>
  <rect class="cls-1" x="1077" y="657.13" width="6" height="6"/>
  <rect class="cls-1" x="1077" y="667.13" width="6" height="6"/>
  <rect class="cls-1" x="1077" y="678.13" width="6" height="6"/>
  <path class="cls-1" d="M1052.53,632.88h-120s-5,4.62-4,8.62a26.63,26.63,0,0,0,4,8h120" transform="translate(24.5 28.63)"/>
  <rect class="cls-1" x="959" y="667.13" width="6" height="5"/>
  <rect class="cls-1" x="969" y="667.13" width="6" height="5"/>
  <rect class="cls-1" x="979" y="667.13" width="5" height="5"/>
  <rect class="cls-1" x="990" y="667.13" width="5" height="5"/>
  <rect class="cls-1" x="1000" y="667.13" width="5" height="5"/>
  <rect class="cls-1" x="984.5" y="638.5" width="5" height="5" transform="translate(1652.5 -317.37) rotate(90)"/>
  <rect class="cls-1" x="995.5" y="638.5" width="5" height="5" transform="translate(1663.5 -328.37) rotate(90)"/>
  <rect class="cls-1" x="1004.5" y="638.5" width="5" height="5" transform="translate(1672.5 -337.37) rotate(90)"/>
  <rect class="cls-1" x="1014.5" y="638.5" width="5" height="5" transform="translate(1682.5 -347.37) rotate(90)"/>
  <polyline class="cls-1" points="1106 664.13 1162 664.13 1226.5 728.63 1237 728.63 1243.75 735.38 1408 735.38 1469.38 796.76 1830 796.76 1858.81 767.95 1917 767.95 1932.41 752.54 1956 752.54"/>
  <path class="cls-1" d="M1091.5,643.5h45l81,81h36L1267,738h29.5l16.25-16.25h79.75l59.88,59.88s348.68-1.44,350.12,0l28.94,28.93H1931.5" transform="translate(24.5 28.63)"/>
  <polyline class="cls-1" points="1108 678.13 1155 678.13 1242.5 765.63 1242.5 777.13 1270.75 805.38 1270.75 883.13 1300.38 912.76 1366 912.76 1388.69 935.45 1679 935.45 1710.16 904.29 1821 904.29 1826.08 899.21 1917 899.21 1952.46 934.67"/>
  <line class="cls-1" x1="1860" y1="842.13" x2="1971" y2="842.13"/>
  <path class="cls-1" d="M1834.5,819.5h107" transform="translate(24.5 28.63)"/>
  <path class="cls-1" d="M1825.5,826.5s77-2,79,0L1931,853" transform="translate(24.5 28.63)"/>
  <path class="cls-1" d="M1816.5,833.5h83L1937,871" transform="translate(24.5 28.63)"/>
  <path class="cls-1" d="M1807.5,840.5h86l48,48" transform="translate(24.5 28.63)"/>
  <path class="cls-1" d="M1927.5,887.5l-40-40h-92L1774,869h-87.5l-28.75-28.75H1620.5l-7.37-7.37H1405.5l-21.31,21.31H1261.5l-6.84-6.85V794.5" transform="translate(24.5 28.63)"/>
  <rect class="cls-1" x="1306" y="792.13" width="47" height="33"/>
  <rect class="cls-1" x="1309" y="798.13" width="6" height="4"/>
  <rect class="cls-1" x="1293" y="796.13" width="6" height="4"/>
  <rect class="cls-1" x="1293" y="807.13" width="6" height="4"/>
  <rect class="cls-1" x="1293" y="816.13" width="6" height="4"/>
  <rect class="cls-1" x="1293" y="825.13" width="6" height="4"/>
  <rect class="cls-1" x="1293" y="836.13" width="6" height="4"/>
  <rect class="cls-1" x="1293" y="845.13" width="6" height="4"/>
  <rect class="cls-1" x="1293" y="855.13" width="6" height="4"/>
  <rect class="cls-1" x="1318" y="798.13" width="6" height="4"/>
  <rect class="cls-1" x="1318" y="798.13" width="6" height="4"/>
  <rect class="cls-1" x="1309" y="811.13" width="6" height="4"/>
  <rect class="cls-1" x="1318" y="811.13" width="6" height="4"/>
  <rect class="cls-1" x="1318" y="811.13" width="6" height="4"/>
  <rect class="cls-1" x="1355" y="792.13" width="47" height="33"/>
  <rect class="cls-1" x="1358" y="798.13" width="6" height="4"/>
  <rect class="cls-1" x="1344" y="785.13" width="6" height="4"/>
  <rect class="cls-1" x="1353" y="785.13" width="6" height="4"/>
  <rect class="cls-1" x="1363" y="785.13" width="6" height="4"/>
  <rect class="cls-1" x="1372" y="785.13" width="6" height="4"/>
  <rect class="cls-1" x="1381" y="785.13" width="6" height="4"/>
  <rect class="cls-1" x="1393" y="785.13" width="6" height="4"/>
  <rect class="cls-1" x="1367" y="798.13" width="6" height="4"/>
  <rect class="cls-1" x="1367" y="798.13" width="6" height="4"/>
  <rect class="cls-1" x="1358" y="811.13" width="6" height="4"/>
  <rect class="cls-1" x="1367" y="811.13" width="6" height="4"/>
  <rect class="cls-1" x="1367" y="811.13" width="6" height="4"/>
  <rect class="cls-1" x="1306" y="831.13" width="47" height="33"/>
  <rect class="cls-1" x="1309" y="837.13" width="6" height="4"/>
  <rect class="cls-1" x="1318" y="837.13" width="6" height="4"/>
  <rect class="cls-1" x="1318" y="837.13" width="6" height="4"/>
  <rect class="cls-1" x="1309" y="850.13" width="6" height="4"/>
  <rect class="cls-1" x="1318" y="850.13" width="6" height="4"/>
  <rect class="cls-1" x="1318" y="850.13" width="6" height="4"/>
  <rect class="cls-1" x="1355" y="831.13" width="47" height="33"/>
  <rect class="cls-1" x="1358" y="837.13" width="6" height="4"/>
  <rect class="cls-1" x="1367" y="837.13" width="6" height="4"/>
  <rect class="cls-1" x="1367" y="837.13" width="6" height="4"/>
  <rect class="cls-1" x="1358" y="850.13" width="6" height="4"/>
  <rect class="cls-1" x="1367" y="850.13" width="6" height="4"/>
  <rect class="cls-1" x="1367" y="850.13" width="6" height="4"/>
  <rect class="cls-1" x="1293" y="791.13" width="10" height="73"/>
  <rect class="cls-1" x="1341" y="783.13" width="61" height="9"/>
  <line class="cls-1" x1="1402" y1="790.13" x2="1402" y2="776.13"/>
  <line class="cls-3" x1="926" y1="649.13" x2="1040" y2="649.13"/>
  <line class="cls-3" x1="927.5" y1="491.13" x2="1041.5" y2="491.13"/>
  <line class="cls-3" x1="1060" y1="515.63" x2="1060" y2="629.63"/>
  <line class="cls-3" x1="906" y1="512.63" x2="906" y2="626.63"/>
  <circle class="cls-1" cx="915.5" cy="504.63" r="3.5"/>
  <circle class="cls-1" cx="1049.5" cy="504.63" r="3.5"/>
  <circle class="cls-1" cx="915.5" cy="637.63" r="3.5"/>
  <circle class="cls-1" cx="1049.5" cy="637.63" r="3.5"/>
  <polyline class="cls-1" points="1294 678.13 1287 678.13 1280 671.13 1280 657.13 1312 657.13 1312 678.13 1301 678.13"/>
  <line class="cls-1" x1="1280" y1="664.13" x2="1294" y2="664.13"/>
  <line class="cls-1" x1="1312" y1="664.13" x2="1305" y2="664.13"/>
  <line class="cls-1" x1="1312" y1="672.13" x2="1305" y2="672.13"/>
  <line class="cls-1" x1="1281" y1="673.13" x2="1294" y2="673.13"/>
  <polyline class="cls-1" points="1326 678.13 1319 678.13 1312 671.13 1312 657.13 1344 657.13 1344 678.13 1333 678.13"/>
  <line class="cls-1" x1="1312" y1="664.13" x2="1326" y2="664.13"/>
  <line class="cls-1" x1="1344" y1="664.13" x2="1337" y2="664.13"/>
  <line class="cls-1" x1="1344" y1="672.13" x2="1337" y2="672.13"/>
  <line class="cls-1" x1="1313" y1="673.13" x2="1326" y2="673.13"/>
  <polyline class="cls-1" points="1358 678.13 1351 678.13 1344 671.13 1344 657.13 1376 657.13 1376 678.13 1365 678.13"/>
  <line class="cls-1" x1="1344" y1="664.13" x2="1358" y2="664.13"/>
  <line class="cls-1" x1="1376" y1="664.13" x2="1369" y2="664.13"/>
  <line class="cls-1" x1="1376" y1="672.13" x2="1369" y2="672.13"/>
  <line class="cls-1" x1="1345" y1="673.13" x2="1358" y2="673.13"/>
  <polyline class="cls-1" points="1390 678.13 1383 678.13 1376 671.13 1376 657.13 1408 657.13 1408 678.13 1397 678.13"/>
  <line class="cls-1" x1="1376" y1="664.13" x2="1390" y2="664.13"/>
  <line class="cls-1" x1="1408" y1="664.13" x2="1401" y2="664.13"/>
  <line class="cls-1" x1="1408" y1="672.13" x2="1401" y2="672.13"/>
  <line class="cls-1" x1="1377" y1="673.13" x2="1390" y2="673.13"/>
  <rect class="cls-1" x="1466" y="831.13" width="77" height="12" rx="4.91"/>
  <rect class="cls-1" x="1566" y="831.13" width="77" height="12" rx="4.91"/>
  <line class="cls-1" x1="1654" y1="839.13" x2="1737" y2="839.13"/>
  <polyline class="cls-1" points="1488 688.13 1475.5 700.63 1450 700.63"/>
  <line class="cls-1" x1="1450" y1="712.13" x2="1520" y2="712.13"/>
  <polyline class="cls-1" points="1954 1091.13 1775 912.13 1711 912.13 1679 944.13 1366 944.13 1351 929.13 1300 929.13 1262.5 891.63 1234 891.63"/>
  <polyline class="cls-1" points="1376 953.13 1409 986.13 1668 986.13 1697.5 1015.63 1711 1015.63 1743.25 1047.88 1743.25 1063.13 1794.63 1114.51"/>
  <rect class="cls-1" x="1711" y="937.13" width="48" height="48"/>
  <rect class="cls-1" x="1457.5" y="1010.5" width="48" height="48" transform="translate(-273.08 1379.21) rotate(-45)"/>
  <rect class="cls-1" x="1447.82" y="1000.08" width="66.43" height="67.84" transform="translate(-272.86 1378.73) rotate(-45)"/>
  <polyline class="cls-1" points="1411 909.13 1438 882.13 1483 882.13 1483 911.13 1409 911.13 1411.5 908.63"/>
  <rect class="cls-1" x="1502" y="881.13" width="48" height="34"/>
  <line class="cls-1" x1="1438" y1="889.13" x2="1442.5" y2="889.13"/>
  <line class="cls-1" x1="1446.5" y1="889.13" x2="1451" y2="889.13"/>
  <line class="cls-1" x1="1438" y1="903.13" x2="1442.5" y2="903.13"/>
  <line class="cls-1" x1="1446.5" y1="903.13" x2="1451" y2="903.13"/>
  <line class="cls-1" x1="1507" y1="889.13" x2="1511.5" y2="889.13"/>
  <line class="cls-1" x1="1515.5" y1="889.13" x2="1520" y2="889.13"/>
  <line class="cls-1" x1="1507" y1="903.13" x2="1511.5" y2="903.13"/>
  <line class="cls-1" x1="1515.5" y1="903.13" x2="1520" y2="903.13"/>
  <line class="cls-1" x1="1500" y1="1079.13" x2="1520.5" y2="1058.63"/>
  <line class="cls-1" x1="1511" y1="1080.13" x2="1522.5" y2="1068.63"/>
  <rect class="cls-1" x="1101.01" y="701.68" width="30.64" height="30.64" transform="translate(-155.53 1028.01) rotate(-45)"/>
  <line class="cls-1" x1="1126" y1="746.13" x2="1129.5" y2="742.63"/>
  <line class="cls-1" x1="1131" y1="751.13" x2="1133.5" y2="748.63"/>
  <line class="cls-1" x1="1138" y1="758.13" x2="1141" y2="755.13"/>
  <line class="cls-1" x1="1150" y1="746.13" x2="1154" y2="742.13"/>
  <line class="cls-1" x1="1146" y1="740.13" x2="1149" y2="737.13"/>
  <line class="cls-1" x1="1139" y1="734.13" x2="1142.5" y2="730.63"/>
  <rect class="cls-1" x="1130.01" y="732.68" width="30.64" height="30.64" transform="translate(-168.96 1057.59) rotate(-45)"/>
  <line class="cls-1" x1="1155" y1="777.13" x2="1158.5" y2="773.63"/>
  <line class="cls-1" x1="1160" y1="782.13" x2="1162.5" y2="779.63"/>
  <line class="cls-1" x1="1167" y1="789.13" x2="1170" y2="786.13"/>
  <line class="cls-1" x1="1179" y1="777.13" x2="1183" y2="773.13"/>
  <line class="cls-1" x1="1175" y1="771.13" x2="1178" y2="768.13"/>
  <rect class="cls-1" x="1159.01" y="760.68" width="30.64" height="30.64" transform="translate(-180.26 1086.3) rotate(-45)"/>
  <line class="cls-1" x1="1184" y1="805.13" x2="1187.5" y2="801.63"/>
  <line class="cls-1" x1="1189" y1="810.13" x2="1191.5" y2="807.63"/>
  <line class="cls-1" x1="1196" y1="817.13" x2="1199" y2="814.13"/>
  <line class="cls-1" x1="1208" y1="805.13" x2="1212" y2="801.13"/>
  <line class="cls-1" x1="1204" y1="799.13" x2="1207" y2="796.13"/>
  <line class="cls-1" x1="1168" y1="765.13" x2="1171.5" y2="761.63"/>
  <line class="cls-1" x1="1198" y1="794.13" x2="1201.5" y2="790.63"/>
  <line class="cls-1" x1="1205" y1="831.13" x2="1225" y2="851.13"/>
  <line class="cls-1" x1="1215" y1="821.13" x2="1235" y2="841.13"/>
  <line class="cls-1" x1="1224" y1="812.13" x2="1244" y2="832.13"/>
  <circle class="cls-1" cx="1110" cy="709.13" r="5"/>
  <circle class="cls-1" cx="1120" cy="709.13" r="5"/>
  <circle class="cls-1" cx="1130" cy="709.13" r="5"/>
  <circle class="cls-1" cx="1140" cy="709.13" r="5"/>
  <polyline class="cls-1" points="1082 712.13 1082 743.13 1091.5 752.63 1091.5 760.13 1076.25 775.38 1076.25 810.13 1131.63 865.51 1131.63 890.13 1176.31 934.82 1176.31 943.13 1211.16 977.98 1223 977.98 1319.08 1074.06 1344 1074.06 1384.04 1114.1"/>
  <polyline class="cls-1" points="1081 787.13 1081 805.13 1139.5 863.63 1139.5 872.13 1334.25 1066.88 1353 1066.88 1399.63 1113.51"/>
  <polyline class="cls-1" points="1087.97 763.87 1087.97 795.13 1115.48 822.65 1126 822.65 1155.74 852.39 1155.74 872.13 1343.87 1060.26 1367 1060.26 1422.94 1116.2"/>
  <polyline class="cls-1" points="1163 863.13 1345 1045.13 1367 1045.13 1440.5 1118.63"/>
  <polyline class="cls-1" points="1134 824.13 1161 824.13 1227.5 890.63 1227.5 901.13 1313.25 986.88 1339 986.88 1463.63 1111.51"/>
  <line class="cls-1" x1="1430" y1="1066.13" x2="1486.5" y2="1122.63"/>
  <polyline class="cls-1" points="1147 839.13 1163 839.13 1199.5 875.63 1199.5 888.13 1348.25 1036.88 1374 1036.88 1454.63 1117.51"/>
  <polyline class="cls-1" points="1037 699.13 1037 782.13 1060 805.13 1060 817.13 1125 882.13 1125 898.13 1154.5 927.63 1154.5 974.13 1249.75 1069.38 1249.75 1080.13 1273.38 1103.76 1360 1103.76 1374.19 1117.95"/>
  <polyline class="cls-1" points="1274 1113.13 1235 1074.13 1218 1074.13 1160 1016.13 1133 1016.13 1119 1002.13 1119 964.13 1104 949.13 1104 875.13 1052 823.13 1052 810.13 1029 787.13 1029 699.13"/>
  <polyline class="cls-1" points="1022 700.13 1022 797.13 1042.5 817.63 1042.5 831.13 1096.25 884.88 1096.25 956.13 1111.13 971.01 1111.13 1007.13 1131.56 1027.57 1155 1027.57 1184.78 1057.35 1184.78 1083.13 1223.89 1122.24"/>
  <polyline class="cls-1" points="1014 699.13 1014 817.13 1089.5 892.63 1089.5 966.13 1101.25 977.88 1101.25 1016.13 1120.63 1035.51 1148 1035.51 1178.31 1065.82 1178.31 1091.13 1203.66 1116.48"/>
  <line class="cls-1" x1="1001" y1="699.13" x2="1001" y2="768.13"/>
  <polyline class="cls-1" points="993 700.13 993 804.13 1030.5 841.63"/>
  <polyline class="cls-1" points="985 700.13 985 801.13 1008.5 824.63 1008.5 839.13 1021.25 851.88"/>
  <polyline class="cls-1" points="978 699.13 978 801.13 1002 825.13 1002 838.13 1024.5 860.63 1044 860.63 1080.75 897.38 1080.75 973.13 1094.38 986.76 1094.38 1022.13 1115.19 1042.95 1141 1042.95 1170.59 1072.54 1170.59 1098.13 1187.8 1115.34"/>
  <polyline class="cls-1" points="971 700.13 971 802.13 994 825.13 994 842.13 1008.5 856.63 1008.5 875.13 1000.75 882.88 1000.75 893.13"/>
  <path class="cls-1" d="M938.5,672.5v101L960,795v71.5l15.75,15.75L1009,849c3.41-4.22,8.61-4.42,10.5-2.5s1.62,6.57-2,10L986,888c-2.49,2.74-1.92,6.81.5,8.5a5.68,5.68,0,0,0,7.07-.93l33-33A5.28,5.28,0,1,1,1034,870l-32.5,32.5a5.34,5.34,0,1,0,8,7l32-32a6,6,0,0,1,8-1c2.5,2,2.82,6.34,0,9l-29,29v15l43,43v28L1149,1086" transform="translate(24.5 28.63)"/>
  <polyline class="cls-1" points="1156 1114.13 1080.5 1038.63 1080.5 1006.13 963.75 889.38 963.75 831.13 913.38 780.76 913.38 750.13 905.19 741.95 905.19 699.13"/>
  <rect class="cls-1" x="928" y="695.13" width="14" height="8" rx="2.18"/>
  <rect class="cls-1" x="928" y="703.13" width="14" height="8" rx="2.18"/>
  <rect class="cls-1" x="928" y="711.13" width="14" height="8" rx="2.18"/>
  <rect class="cls-1" x="928" y="719.13" width="14" height="8" rx="2.18"/>
  <rect class="cls-1" x="928" y="727.13" width="14" height="8" rx="2.18"/>
  <rect class="cls-1" x="928" y="735.13" width="14" height="8" rx="2.18"/>
  <rect class="cls-1" x="928" y="743.13" width="14" height="8" rx="2.18"/>
  <rect class="cls-1" x="928" y="751.13" width="14" height="8" rx="2.18"/>
  <rect class="cls-1" x="928" y="759.13" width="14" height="8" rx="2.18"/>
  <rect class="cls-1" x="928" y="767.13" width="14" height="8" rx="2.18"/>
  <circle class="cls-1" cx="1721.5" cy="1081.63" r="8.5"/>
  <circle class="cls-1" cx="1702.5" cy="1061.63" r="8.5"/>
  <circle class="cls-1" cx="1682.5" cy="1043.63" r="8.5"/>
  <circle class="cls-1" cx="1663.5" cy="1023.63" r="8.5"/>
  <line class="cls-1" x1="1638" y1="1035.13" x2="1738" y2="1135.13"/>
  <polyline class="cls-1" points="898 728.13 898 832.13 912 846.13 912 869.13 897.5 883.63 897.5 979.13 919.75 1001.38 919.75 1045.13 927.38 1052.76 927.38 1115.13"/>
  <polyline class="cls-1" points="941 1115.13 941 1104.13 949 1096.13 949 1021.13 928 1000.13 928 832.13 911.5 815.63 911.5 796.13 904.75 789.38 904.75 754.13 897.74 754.13"/>
  <polyline class="cls-1" points="912 796.13 950.5 834.63 950.5 889.13 1073.75 1012.38 1073.75 1112.13"/>
  <line class="cls-1" x1="1089" y1="1072.13" x2="1089" y2="1113.13"/>
  <polyline class="cls-1" points="1052 1110.13 1052 1073.13 1067 1058.13 1067 1021.13 942.5 896.63 942.5 852.13"/>
  <polyline class="cls-1" points="934 853.13 934 905.13 1059.5 1030.63 1059.5 1052.13 1045.25 1066.38 1045.25 1116.13"/>
  <path class="cls-1" d="M922.5,932.5l81,81c2.71,2.39,3.32,6,2,8-1.61,2.49-6.51,3.28-10,0L923,949Z" transform="translate(24.5 28.63)"/>
  <rect class="cls-1" x="952" y="974.13" width="3" height="4"/>
  <rect class="cls-1" x="961" y="983.13" width="3" height="4"/>
  <rect class="cls-1" x="971" y="993.13" width="3" height="4"/>
  <rect class="cls-1" x="981" y="1003.13" width="3" height="4"/>
  <rect class="cls-1" x="991" y="1012.13" width="3" height="4"/>
  <rect class="cls-1" x="1001" y="1023.13" width="3" height="4"/>
  <rect class="cls-1" x="1010" y="1032.13" width="3" height="4"/>
  <rect class="cls-1" x="1020" y="1042.13" width="3" height="4"/>
  <circle class="cls-1" cx="987.5" cy="1043.63" r="15.5"/>
  <line class="cls-1" x1="987" y1="1028.13" x2="987" y2="1059.13"/>
  <line class="cls-1" x1="972" y1="1044.13" x2="1003" y2="1044.13"/>
  <circle class="cls-1" cx="825.5" cy="611.63" r="15.5"/>
  <line class="cls-1" x1="825" y1="596.13" x2="825" y2="627.13"/>
  <line class="cls-1" x1="810" y1="612.13" x2="841" y2="612.13"/>
  <line class="cls-1" x1="968" y1="998.13" x2="968" y2="1112.13"/>
  <polyline class="cls-1" points="968 1078.16 1020 1078.16 1020 1089.13 1001 1089.13 1001 1110.13"/>
  <rect class="cls-1" x="971" y="1081.13" width="4" height="5"/>
  <rect class="cls-1" x="971" y="1092.13" width="4" height="5"/>
  <rect class="cls-1" x="971" y="1101.13" width="4" height="5"/>
  <rect class="cls-1" x="980" y="1081.13" width="4" height="5"/>
  <rect class="cls-1" x="980" y="1092.13" width="4" height="5"/>
  <rect class="cls-1" x="980" y="1101.13" width="4" height="5"/>
  <rect class="cls-1" x="990" y="1081.13" width="4" height="5"/>
  <rect class="cls-1" x="1000" y="1081.13" width="4" height="5"/>
  <rect class="cls-1" x="1010" y="1081.13" width="4" height="5"/>
  <rect class="cls-1" x="990" y="1092.13" width="4" height="5"/>
  <rect class="cls-1" x="990" y="1101.13" width="4" height="5"/>
  <rect class="cls-1" x="875" y="1014.13" width="20" height="20"/>
  <line class="cls-1" x1="875" y1="1020.13" x2="884" y2="1020.13"/>
  <line class="cls-1" x1="875" y1="1028.13" x2="884" y2="1028.13"/>
  <rect class="cls-1" x="875" y="1034.13" width="20" height="20"/>
  <line class="cls-1" x1="875" y1="1040.13" x2="884" y2="1040.13"/>
  <line class="cls-1" x1="875" y1="1048.13" x2="884" y2="1048.13"/>
  <rect class="cls-1" x="875" y="1054.13" width="20" height="20"/>
  <line class="cls-1" x1="875" y1="1060.13" x2="884" y2="1060.13"/>
  <line class="cls-1" x1="875" y1="1068.13" x2="884" y2="1068.13"/>
  <rect class="cls-1" x="875" y="1074.13" width="20" height="20"/>
  <line class="cls-1" x1="875" y1="1080.13" x2="884" y2="1080.13"/>
  <line class="cls-1" x1="875" y1="1088.13" x2="884" y2="1088.13"/>
  <line class="cls-1" x1="890" y1="729.13" x2="890" y2="965.13"/>
  <polyline class="cls-1" points="883 729.13 883 753.13 869.5 766.63 869.5 893.13 883.25 906.88 883.25 943.13 870.13 956.26 870.13 993.13 860.06 1003.2 860.06 1098.13 882.53 1120.6"/>
  <circle class="cls-1" cx="874.5" cy="670.63" r="6.5"/>
  <circle class="cls-1" cx="904.5" cy="670.63" r="6.5"/>
  <polyline class="cls-1" points="875 699.13 875 743.13 861.5 756.63 861.5 890.13 745.25 1006.38 745.25 1061.13 696.63 1109.76"/>
  <polyline class="cls-1" points="709 1112.13 751.5 1069.63 751.5 1035.13 766.25 1020.38 766.25 996.13"/>
  <polyline class="cls-1" points="759 1047.13 759 1075.13 716 1118.13"/>
  <line class="cls-1" x1="772" y1="1110.13" x2="772" y2="990.13"/>
  <line class="cls-1" x1="781" y1="980.13" x2="781" y2="1119.13"/>
  <line class="cls-1" x1="788" y1="973.13" x2="788" y2="1143.13"/>
  <line class="cls-1" x1="796" y1="966.13" x2="796" y2="1128.13"/>
  <line class="cls-1" x1="802" y1="958.13" x2="802" y2="1116.13"/>
  <line class="cls-1" x1="811" y1="953.13" x2="811" y2="1118.13"/>
  <line class="cls-1" x1="817" y1="944.13" x2="817" y2="1131.13"/>
  <line class="cls-1" x1="825" y1="935.13" x2="825" y2="1141.13"/>
  <line class="cls-1" x1="832" y1="930.13" x2="832" y2="1120.13"/>
  <line class="cls-1" x1="839" y1="923.13" x2="839" y2="1117.13"/>
  <line class="cls-1" x1="847" y1="916.13" x2="847" y2="1122.13"/>
  <polyline class="cls-1" points="854 911.13 854 1102.13 870 1118.13"/>
  <polygon class="cls-4" points="673.85 1113.79 673.15 1114.48 655.29 1096.63 640.21 1096.63 622.35 1114.48 621.65 1113.79 639.79 1095.63 655.71 1095.63 673.85 1113.79"/>
  <rect class="cls-1" x="644.5" y="1101.63" width="7" height="5"/>
  <polyline class="cls-1" points="598 1113.13 635.5 1075.63 714 1075.63 735.75 1053.88 735.75 1000.13 780.38 955.51 780.38 940.13 816.19 904.32 833 904.32 854.09 883.23 854.09 831.13"/>
  <polyline class="cls-1" points="849 685.13 790 685.13 775 700.13 775 944.13 723 996.13 723 1050.13 714 1059.13 635 1059.13 578.5 1115.63"/>
  <polyline class="cls-1" points="568 1113.13 628 1053.13 705 1053.13 715 1043.13 715 985.13 767 933.13"/>
  <polyline class="cls-1" points="766 919.13 706.5 978.63 706.5 1038.13 698.25 1046.38 618 1046.38 548.63 1115.76"/>
  <polyline class="cls-1" points="767 906.13 701.5 971.63 701.5 1029.13 691.75 1038.88 611 1038.88 546.38 1103.51 546.38 1114.13"/>
  <polyline class="cls-1" points="539 1115.13 539 1095.13 603.5 1030.63 683 1030.63 694.25 1019.38 694.25 956.13 708.63 941.76 708.63 762.13"/>
  <polyline class="cls-1" points="703 897.13 672.5 927.63 672.5 943.13 686.75 957.38 686.75 1015.13 678.38 1023.51 598 1023.51 532.19 1089.32 532.19 1113.13"/>
  <polyline class="cls-1" points="457 1112.13 457 1081.13 522.5 1015.63 670 1015.63 677.25 1008.38 677.25 964.13 662.63 949.51 662.63 918.13 700.31 880.45"/>
  <polygon class="cls-1" points="723 845.13 723 809.13 754 809.13 754 820.13 723 847.13 723 845.13"/>
  <rect class="cls-1" x="736" y="815.13" width="4" height="4"/>
  <rect class="cls-1" x="745" y="815.13" width="4" height="4"/>
  <rect class="cls-1" x="746" y="766.13" width="4" height="4"/>
  <rect class="cls-1" x="736" y="766.13" width="4" height="4"/>
  <rect class="cls-1" x="726" y="766.13" width="4" height="4"/>
  <rect class="cls-1" x="727" y="815.13" width="4" height="4"/>
  <rect class="cls-1" x="723" y="857.13" width="28" height="28"/>
  <rect class="cls-1" x="789" y="870.13" width="43" height="13"/>
  <rect class="cls-1" x="793" y="874.13" width="4" height="4"/>
  <rect class="cls-1" x="804" y="874.13" width="4" height="4"/>
  <rect class="cls-1" x="814" y="874.13" width="4" height="4"/>
  <rect class="cls-1" x="823" y="874.13" width="4" height="4"/>
  <rect class="cls-1" x="789" y="850.13" width="43" height="13"/>
  <rect class="cls-1" x="793" y="854.13" width="4" height="4"/>
  <rect class="cls-1" x="804" y="854.13" width="4" height="4"/>
  <rect class="cls-1" x="814" y="854.13" width="4" height="4"/>
  <rect class="cls-1" x="823" y="854.13" width="4" height="4"/>
  <rect class="cls-1" x="793" y="828.13" width="28" height="18"/>
  <rect class="cls-1" x="797" y="832.13" width="7" height="2"/>
  <rect class="cls-1" x="797" y="839.13" width="7" height="2"/>
  <rect class="cls-1" x="811" y="836.13" width="4" height="2"/>
  <rect class="cls-1" x="381" y="966.13" width="28" height="18"/>
  <rect class="cls-1" x="385" y="970.13" width="7" height="2"/>
  <rect class="cls-1" x="385" y="977.13" width="7" height="2"/>
  <rect class="cls-1" x="399" y="974.13" width="4" height="2"/>
  <rect class="cls-1" x="381" y="948.13" width="28" height="18"/>
  <rect class="cls-1" x="385" y="952.13" width="7" height="2"/>
  <rect class="cls-1" x="385" y="959.13" width="7" height="2"/>
  <rect class="cls-1" x="399" y="956.13" width="4" height="2"/>
  <rect class="cls-1" x="353" y="966.13" width="28" height="18"/>
  <rect class="cls-1" x="357" y="970.13" width="7" height="2"/>
  <rect class="cls-1" x="357" y="977.13" width="7" height="2"/>
  <rect class="cls-1" x="371" y="974.13" width="4" height="2"/>
  <rect class="cls-1" x="353" y="948.13" width="28" height="18"/>
  <rect class="cls-1" x="357" y="952.13" width="7" height="2"/>
  <rect class="cls-1" x="357" y="959.13" width="7" height="2"/>
  <rect class="cls-1" x="371" y="956.13" width="4" height="2"/>
  <rect class="cls-1" x="325" y="966.13" width="28" height="18"/>
  <rect class="cls-1" x="329" y="970.13" width="7" height="2"/>
  <rect class="cls-1" x="329" y="977.13" width="7" height="2"/>
  <rect class="cls-1" x="343" y="974.13" width="4" height="2"/>
  <rect class="cls-1" x="325" y="948.13" width="28" height="18"/>
  <rect class="cls-1" x="329" y="952.13" width="7" height="2"/>
  <rect class="cls-1" x="329" y="959.13" width="7" height="2"/>
  <rect class="cls-1" x="343" y="956.13" width="4" height="2"/>
  <rect class="cls-1" x="793" y="808.13" width="28" height="18"/>
  <rect class="cls-1" x="797" y="812.13" width="7" height="2"/>
  <rect class="cls-1" x="797" y="819.13" width="7" height="2"/>
  <rect class="cls-1" x="811" y="816.13" width="4" height="2"/>
  <rect class="cls-1" x="615.44" y="435.63" width="50.06" height="31"/>
  <rect class="cls-1" x="622.6" y="442.52" width="12.51" height="3.44"/>
  <rect class="cls-1" x="622.6" y="454.58" width="12.51" height="3.44"/>
  <rect class="cls-1" x="647.62" y="449.41" width="7.15" height="3.44"/>
  <rect class="cls-1" x="804.44" y="436.63" width="50.06" height="31"/>
  <rect class="cls-1" x="811.6" y="443.52" width="12.51" height="3.44"/>
  <rect class="cls-1" x="811.6" y="455.58" width="12.51" height="3.44"/>
  <rect class="cls-1" x="836.62" y="450.41" width="7.15" height="3.44"/>
  <rect class="cls-1" x="804.44" y="412.63" width="38.75" height="24"/>
  <rect class="cls-1" x="809.98" y="417.97" width="9.69" height="2.67"/>
  <rect class="cls-1" x="809.98" y="427.3" width="9.69" height="2.67"/>
  <rect class="cls-1" x="829.36" y="423.3" width="5.54" height="2.67"/>
  <rect class="cls-1" x="774.5" y="404.63" width="26.7" height="16.53"/>
  <rect class="cls-1" x="778.31" y="408.31" width="6.67" height="1.84"/>
  <rect class="cls-1" x="778.31" y="414.74" width="6.67" height="1.84"/>
  <rect class="cls-1" x="791.66" y="411.98" width="3.81" height="1.84"/>
  <rect class="cls-1" x="737.5" y="404.63" width="26.7" height="16.53"/>
  <rect class="cls-1" x="741.31" y="408.31" width="6.67" height="1.84"/>
  <rect class="cls-1" x="741.31" y="414.74" width="6.67" height="1.84"/>
  <rect class="cls-1" x="754.66" y="411.98" width="3.81" height="1.84"/>
  <rect class="cls-1" x="774.5" y="444.63" width="26.7" height="16.53"/>
  <rect class="cls-1" x="778.31" y="448.31" width="6.67" height="1.84"/>
  <rect class="cls-1" x="778.31" y="454.74" width="6.67" height="1.84"/>
  <rect class="cls-1" x="791.66" y="451.98" width="3.81" height="1.84"/>
  <rect class="cls-1" x="737.5" y="444.63" width="26.7" height="16.53"/>
  <rect class="cls-1" x="741.31" y="448.31" width="6.67" height="1.84"/>
  <rect class="cls-1" x="741.31" y="454.74" width="6.67" height="1.84"/>
  <rect class="cls-1" x="754.66" y="451.98" width="3.81" height="1.84"/>
  <rect class="cls-1" x="531.44" y="436.63" width="50.06" height="31"/>
  <rect class="cls-1" x="538.6" y="443.52" width="12.51" height="3.44"/>
  <rect class="cls-1" x="538.6" y="455.58" width="12.51" height="3.44"/>
  <rect class="cls-1" x="563.62" y="450.41" width="7.15" height="3.44"/>
  <rect class="cls-1" x="797" y="754.13" width="7" height="2"/>
  <rect class="cls-1" x="797" y="761.13" width="7" height="2"/>
  <rect class="cls-1" x="811" y="758.13" width="4" height="2"/>
  <rect class="cls-1" x="818" y="754.13" width="7" height="2"/>
  <rect class="cls-1" x="818" y="761.13" width="7" height="2"/>
  <rect class="cls-1" x="832" y="758.13" width="4" height="2"/>
  <rect class="cls-1" x="793" y="769.13" width="18" height="39"/>
  <rect class="cls-1" x="793" y="749.13" width="49" height="20"/>
  <polygon class="cls-1" points="798 742.13 831 742.13 831 736.13 842 725.13 842 711.13 798 711.13 798 742.13"/>
  <path class="cls-1" d="M826.5,648.5h-83l-8,8v14L624,782H588.5l-72.75,72.75s1.13,12.63,0,13.75l-22.62,22.63L461.5,859.5a5.36,5.36,0,1,0-8,7L518,931c2.7,2.36,3.57,6.68,2.5,8.5-1.3,2.23-6,2.17-10-1l-65-65a5.8,5.8,0,1,0-8,8L503,947c3.27,2.78,3.86,6.77,2.5,8.5s-6.15,2.16-9.66-1.34l-65.5-65.5c-2.53-3.23-6.95-3.2-8.84-1.16s-1.63,6.13,1.48,8.52l65,65c3.76,3.33,4.07,7.91,2.51,9.48s-6.16,1.29-9.52-2.48l-65-65c-3.16-3.28-7.84-2.76-9.48-.52-1.42,1.94-.93,5.67,1.93,8.06l65.51,65.51c3.25,2.78,3.89,6.73,2.56,8.43s-6.09,2.14-9.66-1.34l-66-66c-2.4-3-6.41-3.32-8.34-1.66s-2.25,6.28,1,9L425,956l-22.5,22.5h-183L188,1010h-7.5l-38.25,38.25v8.25l-29.87,29.88" transform="translate(24.5 28.63)"/>
  <polyline class="cls-1" points="321 1112.13 372.5 1060.63 404.5 1092.63 380 1117.13"/>
  <polyline class="cls-1" points="389 1077.13 415 1051.13 430 1051.13 450 1031.13"/>
  <rect class="cls-1" x="416.5" y="991.5" width="29" height="13" transform="translate(856.43 16.18) rotate(45)"/>
  <rect class="cls-1" x="352.5" y="1057.5" width="14" height="14" transform="translate(-622.92 594.62) rotate(-45)"/>
  <polyline class="cls-1" points="20 994.13 129 994.13 201.5 921.63 201.5 906.13 229.25 878.38 247 878.38 276.13 849.26 529 849.26 567.06 811.2"/>
  <polyline class="cls-1" points="20 774.13 230 774.13 259 803.13 576 803.13 590.5 788.63 639 788.63 678.25 749.38 678.25 671.13 709.63 639.76 709.63 632.13 795.81 545.95 849 545.95"/>
  <polyline class="cls-1" points="872 539.13 787 539.13 698.5 627.63 698.5 638.13 671.25 665.38 671.25 743.13 640.13 774.26 579 774.26 558.06 795.2 263 795.2 233.97 766.17 120 766.17 111.98 758.15 20 758.15"/>
  <polyline class="cls-1" points="20 738.13 120 738.13 140 758.13 232 758.13 259.5 730.63 297 730.63 304.75 722.88 508 722.88 529.63 744.51 612 744.51 664.19 692.32 664.19 677.13"/>
  <polyline class="cls-1" points="863 531.13 780 531.13 700 611.13 665 611.13 648.5 627.63 617 627.63 537.75 706.88 494 706.88 459.63 672.51 112 672.51 86.19 698.32 2 698.32"/>
  <line class="cls-1" x1="108" y1="729.13" y2="729.13"/>
  <line class="cls-1" x1="100" y1="722.13" x2="3" y2="722.13"/>
  <line class="cls-1" x1="94" y1="716.13" x2="8" y2="716.13"/>
  <line class="cls-1" x1="84" y1="708.13" x2="1" y2="708.13"/>
  <rect class="cls-1" x="174" y="692.13" width="32" height="13"/>
  <rect class="cls-1" x="221" y="692.13" width="119" height="13"/>
  <rect class="cls-1" x="348" y="692.13" width="112" height="13"/>
  <rect class="cls-1" x="180" y="696.13" width="5" height="5"/>
  <rect class="cls-1" x="193" y="696.13" width="5" height="5"/>
  <rect class="cls-1" x="225" y="696.13" width="5" height="5"/>
  <rect class="cls-1" x="236" y="696.13" width="5" height="5"/>
  <rect class="cls-1" x="246" y="696.13" width="5" height="5"/>
  <rect class="cls-1" x="257" y="696.13" width="5" height="5"/>
  <rect class="cls-1" x="267" y="696.13" width="5" height="5"/>
  <rect class="cls-1" x="278" y="696.13" width="5" height="5"/>
  <rect class="cls-1" x="288" y="696.13" width="5" height="5"/>
  <rect class="cls-1" x="299" y="696.13" width="5" height="5"/>
  <rect class="cls-1" x="309" y="696.13" width="5" height="5"/>
  <rect class="cls-1" x="319" y="696.13" width="5" height="5"/>
  <rect class="cls-1" x="330" y="696.13" width="5" height="5"/>
  <rect class="cls-1" x="365" y="696.13" width="5" height="5"/>
  <rect class="cls-1" x="355" y="696.13" width="5" height="5"/>
  <rect class="cls-1" x="376" y="696.13" width="5" height="5"/>
  <rect class="cls-1" x="386" y="696.13" width="5" height="5"/>
  <rect class="cls-1" x="397" y="696.13" width="5" height="5"/>
  <rect class="cls-1" x="407" y="696.13" width="5" height="5"/>
  <rect class="cls-1" x="418" y="696.13" width="5" height="5"/>
  <rect class="cls-1" x="428" y="696.13" width="5" height="5"/>
  <rect class="cls-1" x="438" y="696.13" width="5" height="5"/>
  <rect class="cls-1" x="449" y="696.13" width="5" height="5"/>
  <rect class="cls-1" x="164.59" y="782.12" width="41.76" height="41.76" transform="translate(-488.98 394.97) rotate(-45)"/>
  <polygon class="cls-1" points="328 871.13 420 871.13 420 916.13 412 916.13 412 935.13 328 935.13 328 871.13"/>
  <circle class="cls-1" cx="352" cy="907.13" r="14"/>
  <circle class="cls-1" cx="392" cy="907.13" r="14"/>
  <polygon class="cls-1" points="570 917.13 597.5 944.63 618.5 923.63 624.5 929.63 683.5 870.63 654 841.13 664 841.13 664 828.13 643 828.13 643 841.13 635 841.13 635 850.13 624 850.13 624 860.13 615 860.13 615 871.13 606 871.13 606 880.13 592 880.13 592 892.13 584 892.13 584 909.13 582 907.13 580.5 905.63 570 916.13 570 917.13"/>
  <rect class="cls-1" x="582.5" y="881.5" width="24" height="9" transform="translate(825.12 -132.24) rotate(45)"/>
  <rect class="cls-1" x="607.5" y="856.5" width="24" height="9" transform="translate(814.77 -157.24) rotate(45)"/>
  <rect class="cls-1" x="631.5" y="831.5" width="24" height="9" transform="translate(804.12 -181.53) rotate(45)"/>
  <polyline class="cls-1" points="584 909.13 595 909.13 595 899.13 606 899.13 606 890.13 615 890.13 615 882.13 623 882.13 623 879.13 627 879.13 627 874.13 630 874.13 630 871.13 635 871.13 635 862.13 644 862.13 644 852.13 653 852.13 653 841.13 657.31 841.13"/>
  <circle class="cls-1" cx="521" cy="1053.13" r="6"/>
  <circle class="cls-1" cx="532" cy="1045.13" r="6"/>
  <path class="cls-1" d="M513.5,1015" transform="translate(24.5 28.63)"/>
  <path class="cls-1" d="M502.5,1015" transform="translate(24.5 28.63)"/>
  <polygon class="cls-1" points="420 1071.13 420 1057.13 412.5 1064.63 420 1071.13"/>
  <rect class="cls-1" x="376.59" y="1042.24" width="11.31" height="12.02" transform="translate(-604.77 605.95) rotate(-45)"/>
  <polygon class="cls-1" points="438 742.13 485 742.13 505 762.13 560 762.13 550.5 771.63 496 771.63 479.75 755.38 479.75 771.13 438 771.13 438 742.13"/>
  <rect class="cls-1" x="407" y="742.13" width="23" height="29"/>
  <rect class="cls-1" x="443" y="746.13" width="32" height="21"/>
  <circle class="cls-1" cx="487" cy="754.13" r="2"/>
  <circle class="cls-1" cx="494" cy="761.13" r="2"/>
  <circle class="cls-1" cx="501" cy="767.13" r="2"/>
  <circle class="cls-1" cx="511.25" cy="767.13" r="2"/>
  <circle class="cls-1" cx="521.5" cy="767.13" r="2"/>
  <circle class="cls-1" cx="531.75" cy="767.13" r="2"/>
  <circle class="cls-1" cx="542" cy="767.13" r="2"/>
  <circle class="cls-1" cx="569" cy="709.63" r="2"/>
  <circle class="cls-1" cx="576.25" cy="702.38" r="2"/>
  <circle class="cls-1" cx="583.5" cy="695.13" r="2"/>
  <circle class="cls-1" cx="590.75" cy="687.89" r="2"/>
  <circle class="cls-1" cx="598" cy="680.64" r="2"/>
  <circle class="cls-1" cx="604.5" cy="674.13" r="2"/>
  <circle class="cls-1" cx="611.75" cy="666.89" r="2"/>
  <circle class="cls-1" cx="619" cy="659.64" r="2"/>
  <circle class="cls-1" cx="787.65" cy="641.63" r="2"/>
  <circle class="cls-1" cx="797.9" cy="641.63" r="2"/>
  <circle class="cls-1" cx="787.65" cy="632.63" r="2"/>
  <circle class="cls-1" cx="797.9" cy="632.63" r="2"/>
  <circle class="cls-1" cx="787.65" cy="624.63" r="2"/>
  <circle class="cls-1" cx="797.9" cy="624.63" r="2"/>
  <circle class="cls-1" cx="808.15" cy="641.63" r="2"/>
  <circle class="cls-1" cx="808" cy="633.13" r="2"/>
  <circle class="cls-1" cx="818.4" cy="641.63" r="2"/>
  <circle class="cls-1" cx="828.65" cy="641.63" r="2"/>
  <circle class="cls-1" cx="837.85" cy="641.63" r="2"/>
  <circle class="cls-1" cx="848.1" cy="641.63" r="2"/>
  <circle class="cls-1" cx="858.35" cy="641.63" r="2"/>
  <circle class="cls-1" cx="848.1" cy="632.63" r="2"/>
  <circle class="cls-1" cx="858.35" cy="632.63" r="2"/>
  <circle class="cls-1" cx="858" cy="625.13" r="2"/>
  <circle class="cls-1" cx="858" cy="617.13" r="2"/>
  <circle class="cls-1" cx="858" cy="610.13" r="2"/>
  <circle class="cls-1" cx="858" cy="602.13" r="2"/>
  <circle class="cls-1" cx="858" cy="594.13" r="2"/>
  <circle class="cls-1" cx="858" cy="586.13" r="2"/>
  <circle class="cls-1" cx="858" cy="579.13" r="2"/>
  <circle class="cls-1" cx="848" cy="587.13" r="2"/>
  <circle class="cls-1" cx="848" cy="579.13" r="2"/>
  <circle class="cls-1" cx="839" cy="579.13" r="2"/>
  <circle class="cls-1" cx="829" cy="579.13" r="2"/>
  <circle class="cls-1" cx="818" cy="579.13" r="2"/>
  <circle class="cls-1" cx="808" cy="579.13" r="2"/>
  <circle class="cls-1" cx="808" cy="587.13" r="2"/>
  <rect class="cls-1" x="526.5" y="650.5" width="86" height="11" transform="translate(-272.56 623.47) rotate(-45)"/>
  <rect class="cls-1" x="749" y="625.13" width="23" height="19"/>
  <line class="cls-1" x1="761" y1="625.13" x2="761" y2="644.13"/>
  <line class="cls-1" x1="749" y1="634.13" x2="772" y2="634.13"/>
  <polyline class="cls-1" points="780 596.13 802 596.13 802 575.13 863 575.13 863 647.13 780 647.13 780 616.13 803 616.13 803 624.13 813 624.13 813 633.13 838 633.13 838 625.13 851 625.13 851 596.13 839 596.13 839 585.13 813 585.13 813 593.13 802 593.13"/>
  <polyline class="cls-1" points="870 525.13 765 525.13 707.5 582.63 707.5 592.13 701.75 597.88 532 597.88 473.88 656.01 111 656.01 82.56 627.57 15 627.57"/>
  <line class="cls-1" x1="21" y1="634.13" x2="80" y2="634.13"/>
  <line class="cls-1" x1="18" y1="643.13" x2="87" y2="643.13"/>
  <line class="cls-1" x1="19" y1="649.13" x2="97" y2="649.13"/>
  <polyline class="cls-1" points="21 665.13 32 665.13 41.5 655.63"/>
  <line class="cls-1" x1="528" y1="688.13" x2="571.5" y2="644.63"/>
  <rect class="cls-1" x="525" y="625.13" width="51" height="10"/>
  <rect class="cls-1" x="336" y="823.13" width="14" height="8"/>
  <rect class="cls-1" x="357" y="823.13" width="14" height="8"/>
  <rect class="cls-1" x="376" y="823.13" width="14" height="8"/>
  <rect class="cls-1" x="397" y="823.13" width="14" height="8"/>
  <rect class="cls-1" x="417" y="823.13" width="14" height="8"/>
  <rect class="cls-1" x="449" y="823.13" width="29" height="8"/>
  <rect class="cls-1" x="488" y="823.13" width="29" height="8"/>
  <polyline class="cls-1" points="589.03 936.93 576.91 949.05 570 949.05 564.46 954.59 571.5 961.63 578 955.13 577 949.13"/>
  <polyline class="cls-1" points="579.03 927.02 566.91 939.13 560 939.13 554.46 944.68 561.5 951.72 568 945.22 567 939.22"/>
  <polyline class="cls-1" points="570.03 917.02 557.91 929.13 551 929.13 545.46 934.68 552.5 941.72 559 935.22 558 929.22"/>
  <rect class="cls-1" x="723" y="762.13" width="31" height="11"/>
  <line class="cls-1" x1="709" y1="781.13" x2="723" y2="781.13"/>
  <line class="cls-1" x1="708.5" y1="794.13" x2="722.5" y2="794.13"/>
  <path class="cls-1" d="M844.5,489.5h-67L770,482H739.5l-80.75,80.75H507.5l-58.37,58.38H315.5l-29.31-29.32H212.5l-43.16-43.15H146.5l-13.92,13.92H72.5l-58-58v-26L29,464V429.5L13.24,413.76V397.5l13.13-13.13H46.5l33.94-33.93V313.5L43,276H-1.5" transform="translate(24.5 28.63)"/>
  <path class="cls-1" d="M840.5,481.5h-60L773,474H735.5l-28.25,28.25H691.5l-14.62,14.62V534.5l-12.69,12.69H572.5l-7.16,7.15H506.5l-30.08,30.08H461.5l-28,28h-116L281,576H249.5l-36.74-36.74H125.5l-16.63,16.63H80.5L37.31,512.69V436.5l51.1-51.09V305.5L44,261.05H23.5l-8.27-8.28H-5.5" transform="translate(24.5 28.63)"/>
  <polyline class="cls-1" points="868 502.13 823 502.13 816.5 495.63 750 495.63 719.75 525.88 707 525.88 693.38 539.51 693.38 555.13 678.69 569.82 590 569.82 582.34 577.48 523 577.48 495.67 604.81 481 604.81 450.84 634.97 342 634.97 307.08 600.05 276 600.05 237.04 561.09 140 561.09 126.98 574.11 110 574.11 77.01 541.13 77.01 472.13 120 429.14 120 326.13 54 260.13 18 260.13"/>
  <polyline class="cls-1" points="865 487.13 745 487.13 715 517.13 700 517.13 686 531.13 686 539.13 664 561.13 457 561.13 438.5 579.63 428 579.63 402.25 553.88 334 553.88"/>
  <polyline class="cls-1" points="580 568.13 524 568.13 494.5 597.63 478 597.63 455.75 619.88 414 619.88 399.13 605.01 362 605.01 354.44 612.57 326 612.57 303.78 590.35 273 590.35 237.39 554.74 141 554.74 127.69 541.44 127.69 326.13 54.85 253.29 20 253.29"/>
  <polyline class="cls-1" points="486 583.13 472 583.13 450 605.13 420 605.13 407 592.13 354 592.13 347.5 598.63 331 598.63 309.75 577.38 276 577.38 237.88 539.26 149 539.26 142.44 532.7 142.44 326.13 53.72 237.42 17 237.42"/>
  <polyline class="cls-1" points="20 216.13 54 216.13 178.5 340.63 178.5 392.13 156.75 413.88 156.75 487.13 170.88 501.26 181 501.26 202.94 523.2 244 523.2 281.47 560.67 320 560.67 334.23 574.9 343 574.9 355.38 562.52 402 562.52 428.81 589.33 446 589.33 466.6 568.73 516 568.73"/>
  <polyline class="cls-1" points="171 411.13 171 479.13 202 510.13 255 510.13 291.5 546.63 404 546.63 425.75 568.38 437 568.38 451.13 554.26 661 554.26"/>
  <polyline class="cls-1" points="670 546.13 445 546.13 435.5 555.63"/>
  <polyline class="cls-1" points="677 540.13 300 540.13 262 502.13 207 502.13 191 486.13"/>
  <polyline class="cls-1" points="22 180.13 46 180.13 106.5 240.63 106.5 251.13 148.25 292.88 158 292.88 189.13 324.01 189.13 470.13 213.06 494.07 268 494.07 304.53 530.6 677 530.6"/>
  <polyline class="cls-1" points="685 524.13 310 524.13 274.5 488.63 217 488.63 200.75 472.38 200.75 325.13 43.38 167.76 16 167.76"/>
  <polyline class="cls-1" points="21 96.14 200.5 275.63 200.5 306.13 215.75 321.38 215.75 400.13 280.88 465.26 280.88 480.13 318.44 517.7 693 517.7"/>
  <line class="cls-1" x1="713" y1="510.13" x2="590" y2="510.13"/>
  <polyline class="cls-1" points="721 502.13 480 502.13 363 385.13 363 332.13 326.5 295.63 326.5 266.13 319.25 258.88 319.25 244.13 304.63 229.51 288 229.51 267.31 208.82 267.31 78.14 243.16 53.98 68 53.98 37.58 23.56"/>
  <rect class="cls-1" x="103.58" y="112.72" width="35.56" height="35.56" transform="translate(152.32 -18.96) rotate(45)"/>
  <polyline class="cls-1" points="726 495.13 524 495.13 450.5 421.63 450.5 400.13 428.25 377.88 428.25 326.13 414.63 312.51 392 312.51 347.81 268.32 347.81 243.13 287.91 183.23 287.91 68.14 240.45 20.68"/>
  <polyline class="cls-1" points="734 488.13 525 488.13 458 421.13 458 397.13 437 376.13 437 320.13 421 304.13 392 304.13 355.5 267.63 355.5 236.13 303.25 183.88 303.25 41.13 283.63 21.51"/>
  <polyline class="cls-1" points="465 419.13 465 390.13 444 369.13 444 311.13 429.5 296.63 401 296.63 370.25 265.88 370.25 237.13 311.63 178.51 311.63 38.13 289.31 15.82"/>
  <polyline class="cls-1" points="481 430.13 481 383.13 458.5 360.63 458.5 304.13 339.25 184.88 339.25 17.14"/>
  <polyline class="cls-1" points="640 328.13 368.5 56.63 368.5 109.14 391.75 132.38 417 106.14"/>
  <polyline class="cls-1" points="423 112.14 398 137.13 422.5 161.63 447.53 136.6"/>
  <line class="cls-1" x1="420" y1="125.13" x2="432" y2="137.13"/>
  <line class="cls-1" x1="412" y1="135.13" x2="407" y2="140.13"/>
  <line class="cls-1" x1="415" y1="138.13" x2="410" y2="143.13"/>
  <line class="cls-1" x1="418" y1="141.13" x2="413" y2="146.13"/>
  <line class="cls-1" x1="421" y1="144.13" x2="416" y2="149.13"/>
  <line class="cls-1" x1="394" y1="96.13" x2="406" y2="108.13"/>
  <line class="cls-1" x1="386" y1="106.13" x2="381" y2="111.13"/>
  <line class="cls-1" x1="389" y1="109.13" x2="384" y2="114.13"/>
  <line class="cls-1" x1="392" y1="112.13" x2="387" y2="117.13"/>
  <line class="cls-1" x1="395" y1="115.13" x2="390" y2="120.13"/>
  <polyline class="cls-1" points="452 140.13 427 165.13 451.5 189.63 476.53 164.6"/>
  <line class="cls-1" x1="449" y1="153.13" x2="461" y2="165.13"/>
  <line class="cls-1" x1="441" y1="163.13" x2="436" y2="168.13"/>
  <line class="cls-1" x1="444" y1="166.13" x2="439" y2="171.13"/>
  <line class="cls-1" x1="447" y1="169.13" x2="442" y2="174.13"/>
  <line class="cls-1" x1="450" y1="172.13" x2="445" y2="177.13"/>
  <polyline class="cls-1" points="456.32 184.93 484.26 212.87 490.76 219.37 498 212.13"/>
  <polyline class="cls-1" points="487.38 175.99 475.12 188.25 569.5 282.63 576.5 275.63 572 271.13 577.5 265.63"/>
  <line class="cls-1" x1="491" y1="219.13" x2="473.5" y2="236.63"/>
  <line class="cls-1" x1="522.91" y1="236.69" x2="501.74" y2="257.87"/>
  <line class="cls-1" x1="547" y1="262.13" x2="524" y2="285.13"/>
  <polygon class="cls-1" points="531 309.13 537 309.13 537 301.13 526 301.13 526 291.13 518 291.13 518 281.13 506 281.13 506 269.13 499 269.13 499 259.13 491 259.13 491 254.13 486 254.13 486 248.13 478 248.13 478 242.13 470 242.13 470 235.13 465 235.13 465 229.13 458 229.13 458 220.13 448 220.13 448 232.13 438 232.13 438 241.13 447 241.13 447 255.13 457 255.13 457 267.13 466 267.13 466 275.13 477 275.13 477 284.13 487 284.13 487 293.13 496 293.13 496 303.13 507 303.13 507 314.13 531 314.13 531 309.13"/>
  <line class="cls-1" x1="451" y1="230.13" x2="527.5" y2="306.63"/>
  <line class="cls-1" x1="445" y1="235.13" x2="521.5" y2="311.63"/>
  <rect class="cls-1" x="231.53" y="336.59" width="54.86" height="51.31" transform="translate(356.49 -48.38) rotate(45)"/>
  <line class="cls-1" x1="280" y1="396.13" x2="292" y2="384.13"/>
  <line class="cls-1" x1="303" y1="385.13" x2="281" y2="407.13"/>
  <line class="cls-1" x1="291" y1="408.13" x2="302.5" y2="396.63"/>
  <polygon class="cls-1" points="287 445.13 295 437.13 303 437.13 330 410.13 330 389.13 336.5 395.63 343.5 388.63 343.5 378.13 295.75 330.38 234.5 391.63 287 445.13"/>
  <circle class="cls-1" cx="293.5" cy="344.63" r="2.5"/>
  <circle class="cls-1" cx="298.5" cy="314.63" r="2.5"/>
  <circle class="cls-1" cx="293.5" cy="320.63" r="2.5"/>
  <circle class="cls-1" cx="287.5" cy="326.63" r="2.5"/>
  <circle class="cls-1" cx="282.5" cy="332.63" r="2.5"/>
  <circle class="cls-1" cx="276.5" cy="338.63" r="2.5"/>
  <circle class="cls-1" cx="304.5" cy="355.63" r="2.5"/>
  <circle class="cls-1" cx="313.5" cy="363.63" r="2.5"/>
  <circle class="cls-1" cx="324.5" cy="374.63" r="2.5"/>
  <circle class="cls-1" cx="333.5" cy="383.63" r="2.5"/>
  <polygon class="cls-1" points="312 456.13 354.5 413.63 363 413.63 398.25 448.88 350.5 496.63 312 456.13"/>
  <line class="cls-1" x1="335" y1="448.13" x2="326" y2="457.13"/>
  <line class="cls-1" x1="342" y1="456.13" x2="333" y2="465.13"/>
  <line class="cls-1" x1="349" y1="462.13" x2="340" y2="471.13"/>
  <line class="cls-1" x1="356" y1="469.13" x2="347" y2="478.13"/>
  <line class="cls-1" x1="357" y1="427.13" x2="348" y2="436.13"/>
  <line class="cls-1" x1="364" y1="435.13" x2="355" y2="444.13"/>
  <line class="cls-1" x1="371" y1="441.13" x2="362" y2="450.13"/>
  <line class="cls-1" x1="378" y1="448.13" x2="369" y2="457.13"/>
  <rect class="cls-1" x="364.5" y="427.5" width="24" height="24" transform="translate(-176 423.59) rotate(-45)"/>
  <line class="cls-1" x1="273" y1="281.13" x2="308.5" y2="316.63"/>
  <rect class="cls-1" x="240" y="271.13" width="11" height="11"/>
  <rect class="cls-1" x="229" y="282.13" width="11" height="11"/>
  <rect class="cls-1" x="251" y="260.13" width="11" height="11"/>
  <polygon class="cls-1" points="234 256.13 206.5 228.63 212.5 222.63 222 232.13 219 235.13 237 253.13 234 256.13"/>
  <line class="cls-1" x1="226" y1="260.13" x2="201.5" y2="235.63"/>
  <line class="cls-1" x1="438" y1="232.13" x2="378.5" y2="172.63"/>
  <polygon class="cls-1" points="543 346.13 534 346.13 534 341.13 505 341.13 505 347.13 499 347.13 499 363.13 505 363.13 505 435.13 518.5 448.63 518.5 457.13 530.75 469.38 664 469.38 856 469.38 856 407.13 848 399.13 671 399.13 671 361.13 676 361.13 676 354.13 667 345.13 655 345.13 655 341.13 623 341.13 623 346.13 596 346.13 596 341.13 554 341.13 549 346.13 543 346.13"/>
  <path class="cls-1" d="M814.5,358.5h0Z" transform="translate(24.5 28.63)"/>
  <path class="cls-1" d="M822.5,367.5" transform="translate(24.5 28.63)"/>
  <line class="cls-1" x1="847" y1="395.69" x2="847" y2="399.63"/>
  <path class="cls-1" d="M822.5,367.5" transform="translate(24.5 28.63)"/>
  <line class="cls-1" x1="839" y1="387.13" x2="847" y2="396.13"/>
  <rect class="cls-1" x="627" y="362.13" width="4" height="4"/>
  <rect class="cls-1" x="637" y="362.13" width="4" height="4"/>
  <rect class="cls-1" x="647" y="362.13" width="4" height="4"/>
  <rect class="cls-1" x="656" y="362.13" width="4" height="4"/>
  <rect class="cls-1" x="627" y="372.13" width="4" height="4"/>
  <rect class="cls-1" x="637" y="372.13" width="4" height="4"/>
  <rect class="cls-1" x="647" y="372.13" width="4" height="4"/>
  <rect class="cls-1" x="656" y="372.13" width="4" height="4"/>
  <rect class="cls-1" x="627" y="382.13" width="4" height="4"/>
  <rect class="cls-1" x="637" y="382.13" width="4" height="4"/>
  <rect class="cls-1" x="647" y="382.13" width="4" height="4"/>
  <rect class="cls-1" x="656" y="382.13" width="4" height="4"/>
  <rect class="cls-1" x="627" y="392.13" width="4" height="4"/>
  <rect class="cls-1" x="637" y="392.13" width="4" height="4"/>
  <rect class="cls-1" x="647" y="392.13" width="4" height="4"/>
  <rect class="cls-1" x="656" y="392.13" width="4" height="4"/>
  <rect class="cls-1" x="627" y="402.13" width="4" height="4"/>
  <rect class="cls-1" x="637" y="402.13" width="4" height="4"/>
  <rect class="cls-1" x="647" y="402.13" width="4" height="4"/>
  <rect class="cls-1" x="656" y="402.13" width="4" height="4"/>
  <rect class="cls-1" x="558" y="362.13" width="4" height="4"/>
  <rect class="cls-1" x="568" y="362.13" width="4" height="4"/>
  <rect class="cls-1" x="578" y="362.13" width="4" height="4"/>
  <rect class="cls-1" x="587" y="362.13" width="4" height="4"/>
  <rect class="cls-1" x="558" y="372.13" width="4" height="4"/>
  <rect class="cls-1" x="568" y="372.13" width="4" height="4"/>
  <rect class="cls-1" x="578" y="372.13" width="4" height="4"/>
  <rect class="cls-1" x="587" y="372.13" width="4" height="4"/>
  <rect class="cls-1" x="558" y="382.13" width="4" height="4"/>
  <rect class="cls-1" x="568" y="382.13" width="4" height="4"/>
  <rect class="cls-1" x="578" y="382.13" width="4" height="4"/>
  <rect class="cls-1" x="587" y="382.13" width="4" height="4"/>
  <rect class="cls-1" x="558" y="392.13" width="4" height="4"/>
  <rect class="cls-1" x="568" y="392.13" width="4" height="4"/>
  <rect class="cls-1" x="578" y="392.13" width="4" height="4"/>
  <rect class="cls-1" x="587" y="392.13" width="4" height="4"/>
  <rect class="cls-1" x="558" y="402.13" width="4" height="4"/>
  <rect class="cls-1" x="568" y="402.13" width="4" height="4"/>
  <rect class="cls-1" x="578" y="402.13" width="4" height="4"/>
  <rect class="cls-1" x="586" y="441.13" width="4" height="4"/>
  <rect class="cls-1" x="596" y="441.13" width="4" height="4"/>
  <rect class="cls-1" x="606" y="441.13" width="4" height="4"/>
  <rect class="cls-1" x="586" y="451.13" width="4" height="4"/>
  <rect class="cls-1" x="596" y="451.13" width="4" height="4"/>
  <rect class="cls-1" x="606" y="451.13" width="4" height="4"/>
  <rect class="cls-1" x="586" y="461.13" width="4" height="4"/>
  <rect class="cls-1" x="596" y="461.13" width="4" height="4"/>
  <rect class="cls-1" x="606" y="461.13" width="4" height="4"/>
  <rect class="cls-1" x="508" y="363.13" width="4" height="4"/>
  <rect class="cls-1" x="518" y="363.13" width="4" height="4"/>
  <rect class="cls-1" x="528" y="363.13" width="4" height="4"/>
  <rect class="cls-1" x="508" y="373.13" width="4" height="4"/>
  <rect class="cls-1" x="518" y="373.13" width="4" height="4"/>
  <rect class="cls-1" x="528" y="373.13" width="4" height="4"/>
  <rect class="cls-1" x="508" y="383.13" width="4" height="4"/>
  <rect class="cls-1" x="518" y="383.13" width="4" height="4"/>
  <rect class="cls-1" x="528" y="383.13" width="4" height="4"/>
  <rect class="cls-1" x="508" y="393.13" width="4" height="4"/>
  <rect class="cls-1" x="518" y="393.13" width="4" height="4"/>
  <rect class="cls-1" x="528" y="393.13" width="4" height="4"/>
  <rect class="cls-1" x="508" y="403.13" width="4" height="4"/>
  <rect class="cls-1" x="518" y="403.13" width="4" height="4"/>
  <rect class="cls-1" x="528" y="403.13" width="4" height="4"/>
  <rect class="cls-1" x="587" y="402.13" width="4" height="4"/>
  <rect class="cls-1" x="508" y="421.13" width="4" height="4"/>
  <rect class="cls-1" x="518" y="421.13" width="4" height="4"/>
  <rect class="cls-1" x="528" y="421.13" width="4" height="4"/>
  <rect class="cls-1" x="537" y="421.13" width="4" height="4"/>
  <rect class="cls-1" x="546" y="421.13" width="4" height="4"/>
  <rect class="cls-1" x="556" y="421.13" width="4" height="4"/>
  <rect class="cls-1" x="566" y="421.13" width="4" height="4"/>
  <rect class="cls-1" x="575" y="421.13" width="4" height="4"/>
  <rect class="cls-1" x="583" y="421.13" width="4" height="4"/>
  <rect class="cls-1" x="593" y="421.13" width="4" height="4"/>
  <rect class="cls-1" x="603" y="421.13" width="4" height="4"/>
  <rect class="cls-1" x="612" y="421.13" width="4" height="4"/>
  <rect class="cls-1" x="620" y="421.13" width="4" height="4"/>
  <rect class="cls-1" x="630" y="421.13" width="4" height="4"/>
  <rect class="cls-1" x="640" y="421.13" width="4" height="4"/>
  <rect class="cls-1" x="649" y="421.13" width="4" height="4"/>
  <rect class="cls-1" x="656" y="421.13" width="4" height="4"/>
  <rect class="cls-1" x="675" y="392.13" width="4" height="4"/>
  <rect class="cls-1" x="685" y="392.13" width="4" height="4"/>
  <rect class="cls-1" x="694" y="392.13" width="4" height="4"/>
  <rect class="cls-1" x="702" y="392.13" width="4" height="4"/>
  <rect class="cls-1" x="712" y="392.13" width="4" height="4"/>
  <rect class="cls-1" x="722" y="392.13" width="4" height="4"/>
  <rect class="cls-1" x="731" y="392.13" width="4" height="4"/>
  <rect class="cls-1" x="738" y="392.13" width="4" height="4"/>
  <rect class="cls-1" x="745" y="392.13" width="4" height="4"/>
  <rect class="cls-1" x="755" y="392.13" width="4" height="4"/>
  <rect class="cls-1" x="764" y="392.13" width="4" height="4"/>
  <rect class="cls-1" x="772" y="392.13" width="4" height="4"/>
  <rect class="cls-1" x="782" y="392.13" width="4" height="4"/>
  <rect class="cls-1" x="792" y="392.13" width="4" height="4"/>
  <rect class="cls-1" x="816" y="392.13" width="4" height="4"/>
  <rect class="cls-1" x="825" y="392.13" width="4" height="4"/>
  <rect class="cls-1" x="834" y="392.13" width="4" height="4"/>
  <rect class="cls-1" x="801" y="392.13" width="4" height="4"/>
  <rect class="cls-1" x="808" y="392.13" width="4" height="4"/>
  <path class="cls-1" d="M480.59,389.71H638.5a5,5,0,0,1,0,9.79H480.41" transform="translate(24.5 28.63)"/>
  <polyline class="cls-1" points="807 412.13 807 405.13 809.85 399.28"/>
  <rect class="cls-1" x="673" y="458.13" width="21" height="7"/>
  <rect class="cls-1" x="673" y="449.13" width="21" height="7"/>
  <rect class="cls-1" x="673" y="439.13" width="21" height="7"/>
  <rect class="cls-1" x="673" y="430.13" width="21" height="7"/>
  <rect class="cls-1" x="720.18" y="457.28" width="14.32" height="6.91"/>
  <rect class="cls-1" x="720.18" y="448.4" width="14.32" height="6.91"/>
  <rect class="cls-1" x="720.18" y="438.52" width="14.32" height="6.91"/>
  <rect class="cls-1" x="720.18" y="429.63" width="14.32" height="6.91"/>
  <rect class="cls-1" x="720.18" y="420.4" width="14.32" height="6.91"/>
  <rect class="cls-1" x="720.18" y="410.52" width="14.32" height="6.91"/>
  <rect class="cls-1" x="720.18" y="401.63" width="14.32" height="6.91"/>
  <rect class="cls-1" x="673" y="419.13" width="21" height="7"/>
  <polyline class="cls-1" points="673 419.13 678 413.13 678 406.13 683 406.13 683 399.28"/>
  <polyline class="cls-1" points="694 419.13 709 404.13 720 404.13"/>
  <polyline class="cls-1" points="694 450.15 700.51 443.64 720 443.64"/>
  <line class="cls-1" x1="503" y1="350.13" x2="509" y2="350.13"/>
  <line class="cls-1" x1="503" y1="358.13" x2="509" y2="358.13"/>
  <line class="cls-1" x1="516" y1="350.13" x2="516" y2="360.13"/>
  <line class="cls-1" x1="526" y1="350.13" x2="526" y2="360.13"/>
  <line class="cls-1" x1="566" y1="348.63" x2="566" y2="358.63"/>
  <line class="cls-1" x1="576" y1="348.63" x2="576" y2="358.63"/>
  <line class="cls-1" x1="586" y1="348.63" x2="586" y2="358.63"/>
  <line class="cls-1" x1="635" y1="348.63" x2="635" y2="358.63"/>
  <line class="cls-1" x1="645" y1="348.63" x2="645" y2="358.63"/>
  <line class="cls-1" x1="655" y1="348.63" x2="655" y2="358.63"/>
  <line class="cls-1" x1="606" y1="348.63" x2="606" y2="358.63"/>
  <line class="cls-1" x1="536" y1="354.13" x2="542" y2="354.13"/>
  <line class="cls-1" x1="593.5" y1="353.13" x2="599.5" y2="353.13"/>
  <polyline class="cls-1" points="536 418.13 536 361.13 545 361.13 545 357.13 551 357.13 551 351.13 556 351.13 556 341.13"/>
  <polyline class="cls-1" points="554 362.13 554 409.13 598 409.13 598 363.13 622 363.13 622 409.13 665 409.13 665 399.13 671 399.13"/>
</svg>
